<svg xmlns="http://www.w3.org/2000/svg" xmlns:xlink="http://www.w3.org/1999/xlink" width="555.394" height="536.203" viewBox="0 0 555.394 536.203">
  <defs>
    <linearGradient id="linear-gradient" x1="0.5" x2="0.5" y2="1" gradientUnits="objectBoundingBox">
      <stop offset="0" stop-color="#662d91"/>
      <stop offset="1" stop-color="#92278f"/>
    </linearGradient>
  </defs>
  <g id="Group_4087" data-name="Group 4087" transform="translate(5695.577 7720.68)">
    <g id="Group_3803" data-name="Group 3803" transform="translate(-5429.837 -7631.109)">
      <path id="Path_2717" data-name="Path 2717" d="M700.028,496.136a18.066,18.066,0,0,1-8.873-2.119l-50.014-28.87c-2.472-1.413-3.84-3.355-3.84-5.43s1.324-3.973,3.8-5.429l49.661-28.87a19.637,19.637,0,0,1,17.746,0l49.97,28.87c2.472,1.413,3.84,3.355,3.84,5.429s-1.324,3.973-3.8,5.43l-49.661,28.87A18.012,18.012,0,0,1,700.028,496.136Zm-.441-71.821a16.9,16.9,0,0,0-8.343,1.986l-49.661,28.87c-2.119,1.236-3.267,2.825-3.267,4.547s1.192,3.311,3.355,4.547l49.97,28.87a17.2,17.2,0,0,0,8.387,1.987,16.9,16.9,0,0,0,8.343-1.987l49.661-28.87c2.119-1.236,3.267-2.825,3.267-4.547s-1.192-3.311-3.355-4.547l-49.97-28.87A17.2,17.2,0,0,0,699.586,424.315Z" transform="translate(-637.3 -423.3)" fill="#c2c2c2"/>
    </g>
    <path id="Path_2718" data-name="Path 2718" d="M453.34,653.571,501.1,625.834l-.78-.433L452.43,653.224c-.043.043-.087.043-.13.087Z" transform="translate(-5984.227 -8129.165)" fill="#d5d6e0"/>
    <path id="Path_2719" data-name="Path 2719" d="M562.822,596.339a9.354,9.354,0,0,1-4.681-1.127l-25.961-15a3.139,3.139,0,0,1-.043-5.894l25.787-15a10.285,10.285,0,0,1,9.361,0l25.961,15a3.139,3.139,0,0,1,.043,5.894l-25.787,15A9.354,9.354,0,0,1,562.822,596.339Zm-.217-37.316a8.668,8.668,0,0,0-4.247,1l-25.787,15a2.775,2.775,0,0,0-1.647,2.21,2.894,2.894,0,0,0,1.647,2.253l25.961,15a9.546,9.546,0,0,0,8.495,0l25.787-15a2.775,2.775,0,0,0,1.647-2.21,2.894,2.894,0,0,0-1.647-2.254L566.9,560.064A8.5,8.5,0,0,0,562.6,559.024Z" transform="translate(-6028.308 -8091.09)" fill="#c2c2c2"/>
    <path id="Path_2724" data-name="Path 2724" d="M176.652,849.382,120.57,817.007c-3.6-2.08-5.591-4.854-5.591-7.758s1.95-5.634,5.5-7.714l53.221-30.9-.78-.433-52.831,30.685c-3.814,2.21-5.938,5.2-5.894,8.365,0,3.207,2.124,6.2,6.024,8.408l55.692,32.158Z" transform="translate(-5792.658 -8211.209)" fill="#d5d6e0"/>
    <g id="Group_3811" data-name="Group 3811" transform="translate(-5632.887 -7435.84)">
      <path id="Path_2725" data-name="Path 2725" d="M223.446,782.548c.91.52.953,1.387,0,1.95a3.857,3.857,0,0,1-3.381,0c-.953-.52-.953-1.387,0-1.95A3.591,3.591,0,0,1,223.446,782.548Z" transform="translate(-219.35 -782.125)" fill="#d5d6e0"/>
    </g>
    <g id="Group_3812" data-name="Group 3812" transform="translate(-5649.123 -7426.609)">
      <path id="Path_2726" data-name="Path 2726" d="M185.967,803.848c.91.52.953,1.387,0,1.95a3.857,3.857,0,0,1-3.38,0c-.91-.52-.954-1.387,0-1.95A3.591,3.591,0,0,1,185.967,803.848Z" transform="translate(-181.887 -803.425)" fill="#d5d6e0"/>
    </g>
    <g id="Group_3813" data-name="Group 3813" transform="translate(-5666.242 -7416.608)">
      <path id="Path_2727" data-name="Path 2727" d="M146.467,826.89c.91.52.953,1.387,0,1.951a3.858,3.858,0,0,1-3.38,0c-.91-.52-.954-1.387,0-1.951A3.857,3.857,0,0,1,146.467,826.89Z" transform="translate(-142.387 -826.5)" fill="#d5d6e0"/>
    </g>
    <g id="Group_3814" data-name="Group 3814" transform="translate(-5492.103 -7501.5)">
      <path id="Path_2728" data-name="Path 2728" d="M548.267,631.048c.91.52.954,1.387,0,1.95a3.857,3.857,0,0,1-3.38,0c-.91-.52-.954-1.387,0-1.95A3.591,3.591,0,0,1,548.267,631.048Z" transform="translate(-544.187 -630.625)" fill="#d5d6e0"/>
    </g>
    <g id="Group_3815" data-name="Group 3815" transform="translate(-5508.355 -7492.269)">
      <path id="Path_2729" data-name="Path 2729" d="M510.767,652.348c.91.52.954,1.387,0,1.95a3.857,3.857,0,0,1-3.381,0c-.91-.52-.953-1.387,0-1.95A3.592,3.592,0,0,1,510.767,652.348Z" transform="translate(-506.687 -651.925)" fill="#d5d6e0"/>
    </g>
    <g id="Group_3816" data-name="Group 3816" transform="translate(-5525.431 -7482.268)">
      <path id="Path_2730" data-name="Path 2730" d="M471.367,675.39c.91.52.953,1.387,0,1.95a3.857,3.857,0,0,1-3.38,0c-.91-.52-.954-1.387,0-1.95A3.856,3.856,0,0,1,471.367,675.39Z" transform="translate(-467.287 -675)" fill="#d5d6e0"/>
    </g>
    <g id="Group_3821" data-name="Group 3821" transform="translate(-5640.412 -7375.826)">
      <path id="Path_2736" data-name="Path 2736" d="M206.067,920.99c.91.52.953,1.387,0,1.95a3.857,3.857,0,0,1-3.381,0c-.91-.52-.953-1.387,0-1.95A3.857,3.857,0,0,1,206.067,920.99Z" transform="translate(-201.987 -920.6)" fill="#d5d6e0"/>
    </g>
    <g id="Group_3822" data-name="Group 3822" transform="translate(-5648.077 -7500.645)">
      <path id="Path_2737" data-name="Path 2737" d="M252.647,712.042a19.451,19.451,0,0,1-9.665-2.34L188.5,678.237c-2.687-1.56-4.2-3.684-4.2-5.938s1.474-4.334,4.117-5.894l54.131-31.465a21.127,21.127,0,0,1,19.33,0l54.478,31.465c2.687,1.56,4.2,3.684,4.2,5.938s-1.474,4.334-4.117,5.894L262.312,709.7A19.451,19.451,0,0,1,252.647,712.042Zm-.433-78.315a18.594,18.594,0,0,0-9.1,2.167l-54.131,31.465c-2.3,1.344-3.6,3.077-3.6,4.941s1.3,3.641,3.641,4.984l54.521,31.465a20.2,20.2,0,0,0,18.2,0l54.132-31.465c2.3-1.344,3.6-3.077,3.6-4.941s-1.3-3.641-3.641-4.984l-54.522-31.421A18.136,18.136,0,0,0,252.214,633.727Z" transform="translate(-184.3 -632.6)" fill="#d5d6e0"/>
    </g>
    <g id="Group_3824" data-name="Group 3824" transform="translate(-5633.862 -7368.761)">
      <g id="Group_3823" data-name="Group 3823">
        <path id="Path_2738" data-name="Path 2738" d="M249.822,975.039a9.352,9.352,0,0,1-4.681-1.127l-25.961-15a3.139,3.139,0,0,1-.043-5.894l25.787-15a10.286,10.286,0,0,1,9.361,0l25.961,15a3.139,3.139,0,0,1,.043,5.894l-25.787,15A9.352,9.352,0,0,1,249.822,975.039Zm-.217-37.316a8.668,8.668,0,0,0-4.247,1l-25.787,15a2.775,2.775,0,0,0-1.647,2.21,2.894,2.894,0,0,0,1.647,2.254l25.961,15a9.545,9.545,0,0,0,8.495,0l25.787-15a2.775,2.775,0,0,0,1.647-2.21,2.9,2.9,0,0,0-1.647-2.254L253.9,938.764A8.97,8.97,0,0,0,249.6,937.724Z" transform="translate(-217.1 -936.9)" fill="#d5d6e0"/>
      </g>
    </g>
    <g id="Group_4090" data-name="Group 4090">
      <g id="Group_3837" data-name="Group 3837" transform="translate(-5637.416 -7518.934)">
        <g id="Group_3825" data-name="Group 3825" transform="translate(0.509 0.455)">
          <path id="Path_2739" data-name="Path 2739" d="M320.732,619.859c4.377,2.514,4.421,6.631.043,9.188l-45.637,26.524a17.535,17.535,0,0,1-15.819,0l-45.94-26.524c-4.377-2.514-4.421-6.631-.043-9.188l45.637-26.524a17.534,17.534,0,0,1,15.819,0Z" transform="translate(-210.075 -591.45)" fill="#1f54dd"/>
        </g>
        <g id="Group_3826" data-name="Group 3826" transform="translate(18.365 10.792)">
          <path id="Path_2740" data-name="Path 2740" d="M327.26,634.8c3.034,1.734,3.034,4.551.043,6.284l-31.335,18.2a12.027,12.027,0,0,1-10.878,0l-31.551-18.2c-2.99-1.734-3.034-4.551-.043-6.284l31.335-18.2a12.027,12.027,0,0,1,10.878,0Z" transform="translate(-251.275 -615.3)" fill="#540b87"/>
        </g>
        <g id="Group_3827" data-name="Group 3827" transform="translate(28.485 16.664)">
          <path id="Path_2741" data-name="Path 2741" d="M330.912,643.3c2.21,1.3,2.254,3.38.043,4.681l-23.23,13.479a8.817,8.817,0,0,1-8.061,0L276.3,647.985c-2.21-1.3-2.254-3.38-.043-4.681l23.23-13.479a8.817,8.817,0,0,1,8.061,0Z" transform="translate(-274.625 -628.85)" fill="#6de0f5"/>
        </g>
        <path id="Path_2742" data-name="Path 2742" d="M320.733,672.194,275.1,698.718a17.535,17.535,0,0,1-15.819,0l-45.94-26.524c-2.21-1.257-3.294-2.947-3.294-4.594L210,680.342c0,1.69,1.083,3.337,3.294,4.594l45.94,26.524c4.377,2.514,11.485,2.514,15.819,0l45.637-26.524c2.167-1.257,3.25-2.9,3.25-4.551l.043-12.742C323.984,669.291,322.9,670.937,320.733,672.194Z" transform="translate(-209.523 -634.142)" fill="#d5d6e0"/>
        <g id="Group_3828" data-name="Group 3828">
          <path id="Path_2743" data-name="Path 2743" d="M266.542,657.317a16.54,16.54,0,0,1-8.148-1.95l-45.94-26.524c-2.3-1.3-3.554-3.077-3.554-4.984s1.257-3.684,3.467-4.984L258,592.35a17.995,17.995,0,0,1,16.3,0l45.94,26.524c2.3,1.3,3.554,3.077,3.554,4.984s-1.257,3.684-3.467,4.984L274.69,655.367A16.54,16.54,0,0,1,266.542,657.317ZM266.2,591.31a15.685,15.685,0,0,0-7.671,1.82l-45.637,26.524c-1.95,1.127-3.034,2.6-3.034,4.161s1.083,3.034,3.077,4.2l45.94,26.524a17.075,17.075,0,0,0,15.342,0l45.637-26.524c1.95-1.127,3.034-2.6,3.034-4.161s-1.083-3.034-3.077-4.2l-45.94-26.524A15.685,15.685,0,0,0,266.2,591.31Z" transform="translate(-208.9 -590.4)" fill="#d5d6e0"/>
        </g>
        <path id="Path_2744" data-name="Path 2744" d="M266.542,713.744a16.539,16.539,0,0,1-8.148-1.95l-45.94-26.524c-2.3-1.3-3.554-3.121-3.554-5.027l.043-12.742h.954c0,1.56,1.083,3.077,3.077,4.2l45.94,26.524a17.074,17.074,0,0,0,15.342,0L319.893,671.7c1.95-1.127,3.034-2.6,3.034-4.161h.954l-.043,12.742c0,1.907-1.257,3.641-3.467,4.941L274.733,711.75A16.608,16.608,0,0,1,266.542,713.744Zm-56.689-43.47-.043,9.968c0,1.56,1.083,3.077,3.077,4.2l45.94,26.524a17.075,17.075,0,0,0,15.342,0l45.637-26.524c1.95-1.127,3.034-2.6,3.034-4.161l.043-9.968a8.138,8.138,0,0,1-2.557,2.21L274.69,699.052a17.994,17.994,0,0,1-16.3,0l-45.94-26.524A8.427,8.427,0,0,1,209.854,670.274Z" transform="translate(-208.9 -634.085)" fill="#d5d6e0"/>
        <g id="Group_3831" data-name="Group 3831" transform="translate(4.637 43.799)">
          <g id="Group_3830" data-name="Group 3830">
            <path id="Path_2745" data-name="Path 2745" d="M223.43,691.694a1.176,1.176,0,0,0-1.17-.13l-1.56.91a1.181,1.181,0,0,1,1.17.13,3.429,3.429,0,0,1,1.6,2.817,1.1,1.1,0,0,1-.477,1.04l1.56-.91a1.1,1.1,0,0,0,.477-1.04A3.429,3.429,0,0,0,223.43,691.694Z" transform="translate(-220.223 -691.46)" fill="#6e6e6e"/>
            <g id="Group_3829" data-name="Group 3829" transform="translate(0 0.88)">
              <path id="Path_2746" data-name="Path 2746" d="M221.29,693.712a3.429,3.429,0,0,1,1.6,2.817c-.043,1.04-.737,1.474-1.647.954a3.583,3.583,0,0,1-1.647-2.817C219.643,693.625,220.38,693.192,221.29,693.712Z" transform="translate(-219.6 -693.492)"/>
            </g>
          </g>
        </g>
        <g id="Group_3836" data-name="Group 3836" transform="translate(35.842 61.369)">
          <g id="Group_3832" data-name="Group 3832">
            <path id="Path_2747" data-name="Path 2747" d="M293.074,732.867v4.117l-1.474-.824.043-4.161Z" transform="translate(-291.6 -732)" fill="#1f54dd"/>
          </g>
          <g id="Group_3833" data-name="Group 3833" transform="translate(2.99 1.734)">
            <path id="Path_2748" data-name="Path 2748" d="M299.974,736.867v4.117l-1.474-.867V736Z" transform="translate(-298.5 -736)" fill="#1f54dd"/>
          </g>
          <g id="Group_3834" data-name="Group 3834" transform="translate(5.981 3.467)">
            <path id="Path_2749" data-name="Path 2749" d="M306.874,740.824v4.161l-1.474-.867V740Z" transform="translate(-305.4 -740)" fill="#1f54dd"/>
          </g>
          <g id="Group_3835" data-name="Group 3835" transform="translate(8.971 5.201)">
            <path id="Path_2750" data-name="Path 2750" d="M313.774,744.824v4.117l-1.474-.823V744Z" transform="translate(-312.3 -744)" fill="#1f54dd"/>
          </g>
        </g>
      </g>
      <g id="Group_3850" data-name="Group 3850" transform="translate(-5637.416 -7538.394)">
        <g id="Group_3838" data-name="Group 3838" transform="translate(0.509 0.455)">
          <path id="Path_2751" data-name="Path 2751" d="M320.732,574.959c4.377,2.514,4.421,6.631.043,9.188l-45.637,26.524a17.534,17.534,0,0,1-15.819,0l-45.94-26.524c-4.377-2.514-4.421-6.631-.043-9.188l45.637-26.524a17.535,17.535,0,0,1,15.819,0Z" transform="translate(-210.075 -546.55)" fill="#1f54dd"/>
        </g>
        <g id="Group_3839" data-name="Group 3839" transform="translate(18.365 10.792)">
          <path id="Path_2752" data-name="Path 2752" d="M327.26,589.9c3.034,1.734,3.034,4.551.043,6.284l-31.335,18.2a12.026,12.026,0,0,1-10.878,0l-31.551-18.2c-2.99-1.734-3.034-4.551-.043-6.284l31.335-18.2a12.028,12.028,0,0,1,10.878,0Z" transform="translate(-251.275 -570.4)" fill="#540b87"/>
        </g>
        <g id="Group_3840" data-name="Group 3840" transform="translate(28.485 16.621)">
          <path id="Path_2753" data-name="Path 2753" d="M330.912,598.347c2.21,1.3,2.254,3.38.043,4.681l-23.23,13.479a8.817,8.817,0,0,1-8.061,0L276.3,602.984c-2.21-1.3-2.254-3.38-.043-4.681l23.23-13.479a8.817,8.817,0,0,1,8.061,0Z" transform="translate(-274.625 -583.85)" fill="#6de0f5"/>
        </g>
        <path id="Path_2754" data-name="Path 2754" d="M320.733,627.194,275.1,653.718a17.534,17.534,0,0,1-15.819,0l-45.94-26.524c-2.21-1.257-3.294-2.947-3.294-4.594L210,635.342c0,1.69,1.083,3.337,3.294,4.594l45.94,26.524c4.377,2.514,11.485,2.514,15.819,0l45.637-26.524c2.167-1.257,3.25-2.9,3.25-4.551l.043-12.742C323.984,624.29,322.9,625.937,320.733,627.194Z" transform="translate(-209.523 -589.185)" fill="#d5d6e0"/>
        <g id="Group_3841" data-name="Group 3841">
          <path id="Path_2755" data-name="Path 2755" d="M266.542,612.417a16.538,16.538,0,0,1-8.148-1.95l-45.94-26.524c-2.3-1.3-3.554-3.077-3.554-4.984s1.257-3.684,3.467-4.984l45.68-26.524a18,18,0,0,1,16.3,0l45.94,26.524c2.3,1.3,3.554,3.077,3.554,4.984s-1.257,3.684-3.467,4.984l-45.637,26.524A16.83,16.83,0,0,1,266.542,612.417ZM266.2,546.41a15.686,15.686,0,0,0-7.671,1.82l-45.637,26.524c-1.95,1.127-3.034,2.6-3.034,4.161s1.083,3.034,3.077,4.2l45.94,26.524a17.075,17.075,0,0,0,15.342,0l45.637-26.524c1.95-1.127,3.034-2.6,3.034-4.16s-1.083-3.034-3.077-4.2l-45.94-26.524A15.686,15.686,0,0,0,266.2,546.41Z" transform="translate(-208.9 -545.5)" fill="#d5d6e0"/>
        </g>
        <path id="Path_2756" data-name="Path 2756" d="M266.542,668.844a16.54,16.54,0,0,1-8.148-1.95l-45.94-26.524c-2.3-1.3-3.554-3.12-3.554-5.027l.043-12.742h.954c0,1.56,1.083,3.077,3.077,4.2l45.94,26.524a17.073,17.073,0,0,0,15.342,0L319.893,626.8c1.95-1.127,3.034-2.6,3.034-4.161h.954l-.043,12.742c0,1.907-1.257,3.641-3.467,4.941L274.733,666.85A16.61,16.61,0,0,1,266.542,668.844Zm-56.689-43.47-.043,9.968c0,1.56,1.083,3.077,3.077,4.2l45.94,26.524a17.075,17.075,0,0,0,15.342,0l45.637-26.524c1.95-1.127,3.034-2.6,3.034-4.161l.043-9.968a8.138,8.138,0,0,1-2.557,2.21L274.69,654.151a18,18,0,0,1-16.3,0l-45.94-26.524A8.427,8.427,0,0,1,209.854,625.374Z" transform="translate(-208.9 -589.185)" fill="#d5d6e0"/>
        <g id="Group_3844" data-name="Group 3844" transform="translate(4.637 43.756)">
          <g id="Group_3843" data-name="Group 3843">
            <path id="Path_2757" data-name="Path 2757" d="M223.43,646.694a1.176,1.176,0,0,0-1.17-.13l-1.56.91a1.181,1.181,0,0,1,1.17.13,3.429,3.429,0,0,1,1.6,2.817,1.1,1.1,0,0,1-.477,1.04l1.56-.91a1.1,1.1,0,0,0,.477-1.04A3.49,3.49,0,0,0,223.43,646.694Z" transform="translate(-220.223 -646.46)" fill="#6e6e6e"/>
            <g id="Group_3842" data-name="Group 3842" transform="translate(0 0.924)">
              <path id="Path_2758" data-name="Path 2758" d="M221.29,648.812a3.429,3.429,0,0,1,1.6,2.817c0,1.04-.737,1.474-1.647.953a3.583,3.583,0,0,1-1.647-2.817C219.643,648.725,220.38,648.292,221.29,648.812Z" transform="translate(-219.6 -648.592)"/>
            </g>
          </g>
        </g>
        <g id="Group_3849" data-name="Group 3849" transform="translate(35.842 61.369)">
          <g id="Group_3845" data-name="Group 3845">
            <path id="Path_2759" data-name="Path 2759" d="M293.074,687.967v4.117l-1.474-.824.043-4.161Z" transform="translate(-291.6 -687.1)" fill="#1f54dd"/>
          </g>
          <g id="Group_3846" data-name="Group 3846" transform="translate(2.99 1.734)">
            <path id="Path_2760" data-name="Path 2760" d="M299.974,691.923v4.161l-1.474-.867V691.1Z" transform="translate(-298.5 -691.1)" fill="#1f54dd"/>
          </g>
          <g id="Group_3847" data-name="Group 3847" transform="translate(5.981 3.467)">
            <path id="Path_2761" data-name="Path 2761" d="M306.874,695.924v4.117l-1.474-.823V695.1Z" transform="translate(-305.4 -695.1)" fill="#1f54dd"/>
          </g>
          <g id="Group_3848" data-name="Group 3848" transform="translate(8.971 5.201)">
            <path id="Path_2762" data-name="Path 2762" d="M313.774,699.924v4.117l-1.474-.823V699.1Z" transform="translate(-312.3 -699.1)" fill="#1f54dd"/>
          </g>
        </g>
      </g>
      <g id="Group_3863" data-name="Group 3863" transform="translate(-5637.416 -7557.896)">
        <g id="Group_3851" data-name="Group 3851" transform="translate(0.509 0.498)">
          <path id="Path_2763" data-name="Path 2763" d="M320.732,530.059c4.377,2.514,4.421,6.631.043,9.188l-45.637,26.524a17.534,17.534,0,0,1-15.819,0l-45.94-26.524c-4.377-2.514-4.421-6.631-.043-9.188l45.594-26.524a17.535,17.535,0,0,1,15.819,0Z" transform="translate(-210.075 -501.65)" fill="#fff"/>
        </g>
        <g id="Group_3852" data-name="Group 3852" transform="translate(18.365 10.835)">
          <path id="Path_2764" data-name="Path 2764" d="M327.26,545c3.034,1.734,3.034,4.551.043,6.284l-31.335,18.2a12.028,12.028,0,0,1-10.878,0l-31.551-18.2c-2.99-1.733-3.034-4.551-.043-6.284l31.335-18.2a12.027,12.027,0,0,1,10.878,0Z" transform="translate(-251.275 -525.5)" fill="#1f54dd"/>
        </g>
        <path id="Path_2766" data-name="Path 2766" d="M320.733,582.294,275.1,608.818a17.534,17.534,0,0,1-15.819,0l-45.94-26.524c-2.21-1.257-3.294-2.947-3.294-4.594L210,590.442c0,1.69,1.083,3.337,3.294,4.594l45.94,26.524c4.377,2.514,11.485,2.514,15.819,0l45.637-26.524c2.167-1.257,3.25-2.9,3.25-4.551l.043-12.742C323.984,579.39,322.9,581.037,320.733,582.294Z" transform="translate(-209.523 -544.242)" fill="#d5d6e0"/>
        <g id="Group_3854" data-name="Group 3854">
          <path id="Path_2767" data-name="Path 2767" d="M266.542,567.46a16.541,16.541,0,0,1-8.148-1.95l-45.94-26.524c-2.3-1.3-3.554-3.077-3.554-4.984s1.257-3.684,3.467-4.984l45.68-26.567a17.995,17.995,0,0,1,16.3,0l45.94,26.524c2.3,1.3,3.554,3.077,3.554,4.984s-1.257,3.684-3.467,4.984l-45.637,26.524A16.375,16.375,0,0,1,266.542,567.46Zm-.347-66.006a15.685,15.685,0,0,0-7.671,1.82L212.887,529.8c-1.95,1.127-3.034,2.6-3.034,4.161s1.083,3.034,3.077,4.2l45.94,26.524a17.074,17.074,0,0,0,15.342,0l45.637-26.524c1.95-1.127,3.034-2.6,3.034-4.161s-1.083-3.034-3.077-4.2l-45.94-26.524A15.685,15.685,0,0,0,266.2,501.454Z" transform="translate(-208.9 -500.5)" fill="#d5d6e0"/>
        </g>
        <path id="Path_2768" data-name="Path 2768" d="M266.542,623.944a16.538,16.538,0,0,1-8.148-1.95l-45.94-26.524c-2.3-1.3-3.554-3.12-3.554-5.027l.043-12.742h.954c0,1.56,1.083,3.077,3.077,4.2l45.94,26.524a17.075,17.075,0,0,0,15.342,0L319.893,581.9c1.95-1.127,3.034-2.6,3.034-4.16h.954l-.043,12.742c0,1.907-1.257,3.641-3.467,4.941L274.733,621.95A16.611,16.611,0,0,1,266.542,623.944Zm-56.689-43.47-.043,9.968c0,1.56,1.083,3.077,3.077,4.2l45.94,26.524a17.075,17.075,0,0,0,15.342,0l45.637-26.524c1.95-1.127,3.034-2.6,3.034-4.16l.043-9.968a8.134,8.134,0,0,1-2.557,2.21L274.69,609.251a18,18,0,0,1-16.3,0l-45.94-26.524A8.424,8.424,0,0,1,209.854,580.474Z" transform="translate(-208.9 -544.242)" fill="#d5d6e0"/>
        <g id="Group_3857" data-name="Group 3857" transform="translate(4.637 43.799)">
          <g id="Group_3856" data-name="Group 3856">
            <path id="Path_2769" data-name="Path 2769" d="M223.43,601.794a1.176,1.176,0,0,0-1.17-.13l-1.56.91a1.181,1.181,0,0,1,1.17.13,3.429,3.429,0,0,1,1.6,2.817,1.1,1.1,0,0,1-.477,1.04l1.56-.91a1.1,1.1,0,0,0,.477-1.04A3.429,3.429,0,0,0,223.43,601.794Z" transform="translate(-220.223 -601.56)" fill="#6e6e6e"/>
            <g id="Group_3855" data-name="Group 3855" transform="translate(0 0.924)">
              <path id="Path_2770" data-name="Path 2770" d="M221.29,603.912a3.429,3.429,0,0,1,1.6,2.817c-.043,1.04-.737,1.474-1.647.953a3.583,3.583,0,0,1-1.647-2.817C219.643,603.825,220.38,603.392,221.29,603.912Z" transform="translate(-219.6 -603.692)"/>
            </g>
          </g>
        </g>
        <g id="Group_3862" data-name="Group 3862" transform="translate(35.842 61.413)">
          <g id="Group_3858" data-name="Group 3858">
            <path id="Path_2771" data-name="Path 2771" d="M293.074,643.067v4.117l-1.474-.867.043-4.117Z" transform="translate(-291.6 -642.2)" fill="#1f54dd"/>
          </g>
          <g id="Group_3859" data-name="Group 3859" transform="translate(2.99 1.734)">
            <path id="Path_2772" data-name="Path 2772" d="M299.974,647.023v4.161l-1.474-.867V646.2Z" transform="translate(-298.5 -646.2)" fill="#1f54dd"/>
          </g>
          <g id="Group_3860" data-name="Group 3860" transform="translate(5.981 3.467)">
            <path id="Path_2773" data-name="Path 2773" d="M306.874,651.023v4.117l-1.474-.823V650.2Z" transform="translate(-305.4 -650.2)" fill="#1f54dd"/>
          </g>
          <g id="Group_3861" data-name="Group 3861" transform="translate(8.971 5.157)">
            <path id="Path_2774" data-name="Path 2774" d="M313.774,654.967v4.117l-1.474-.823V654.1Z" transform="translate(-312.3 -654.1)" fill="#1f54dd"/>
          </g>
        </g>
      </g>
      <g id="Group_4091" data-name="Group 4091" transform="translate(-5599.95 -7594.402)">
        <path id="Path_2286" data-name="Path 2286" d="M262.893,27.356c0-9.333-6.555-20.69-14.643-25.359-4.013-2.319-7.656-2.551-10.3-1.052h-.031l-.053.031c-.419.245-3.621,2.127-3.674,2.154l1.2.25c-1.449,1.784-1.784,3.71-1.784,7.054,0,9.337,6.555,20.69,14.639,25.359a12.834,12.834,0,0,0,7.036,1.984l-.856,1.471,4.058-2.368.214-.12.107-.062h0C261.332,35.132,262.893,31.908,262.893,27.356Z" transform="translate(-223.993 2.691)" fill="#dd990e"/>
        <ellipse id="Ellipse_2991" data-name="Ellipse 2991" cx="11.996" cy="20.779" rx="11.996" ry="20.779" transform="translate(0 11.955) rotate(-29.887)" fill="#f9cb07"/>
        <path id="Path_2288" data-name="Path 2288" d="M255.831,37.432c0,6.689-4.691,9.391-10.483,6.051-.357-.21-.718-.446-1.07-.682a.071.071,0,0,1-.036-.027c-4.954-3.821-8.722-10.969-8.722-16.944,0-6.689,4.691-9.4,10.479-6.051.388.223.771.468,1.146.736C252.081,24.323,255.831,31.457,255.831,37.432Z" transform="translate(-225.051 -7.475)" fill="#e8a30a"/>
        <path id="Path_2290" data-name="Path 2290" d="M256.014,38.978a5.468,5.468,0,0,0-1.414-1.784q1.2,0,1.061-1.784a4.1,4.1,0,0,0-.3-1.24,4.393,4.393,0,0,0-.664-1.115,7.639,7.639,0,0,0-.892-.945,11.905,11.905,0,0,0-1.133-.865V28.9l-1.244-.718v2.287l-.99-.553V27.608L249.2,26.89v2.354c-.178-.1-.446-.245-.785-.446l-1.717-1v1.529l.892.522A1.4,1.4,0,0,1,248.3,30.9v2.675l.129.085-.129-.071v3.75c-.04.294-.2.361-.468.21l-.892-.522-.254,1.565,1.619.936.446.259.446.259v2.381l1.244.718v-2.35c.227.138.557.33.99.58v2.345l1.244.718V42.055a10.62,10.62,0,0,0,1.177.54,4.1,4.1,0,0,0,.981.245,1.454,1.454,0,0,0,.785-.094,1.154,1.154,0,0,0,.522-.531,2.594,2.594,0,0,0,.263-1.017A4.125,4.125,0,0,0,256.014,38.978Zm-5.569-7.371.317.183.446.241c.116.067.272.165.473.294a5.8,5.8,0,0,1,.495.361,5.878,5.878,0,0,1,.446.415,2.96,2.96,0,0,1,.388.482,2.677,2.677,0,0,1,.245.535,1.9,1.9,0,0,1,.1.606,1.182,1.182,0,0,1-.071.446.446.446,0,0,1-.214.241,1.218,1.218,0,0,1-.3.08,1.043,1.043,0,0,1-.388-.058c-.161-.045-.3-.094-.419-.134a3.9,3.9,0,0,1-.446-.205c-.178-.089-.312-.165-.4-.218l-.379-.214-.276-.169V31.608Zm3.4,8.325a.6.6,0,0,1-.2.259.54.54,0,0,1-.321.1,1.828,1.828,0,0,1-.383-.027,2.867,2.867,0,0,1-.446-.129q-.227-.083-.446-.187c-.129-.058-.29-.138-.473-.236s-.326-.174-.446-.232l-.388-.227-.3-.178V35.915l.383.214.522.29c.134.08.321.2.557.352a4.244,4.244,0,0,1,.6.446,6.688,6.688,0,0,1,.531.477,3.507,3.507,0,0,1,.446.553,2.917,2.917,0,0,1,.3.6,1.869,1.869,0,0,1,.125.669A1.012,1.012,0,0,1,253.842,39.933Z" transform="translate(-231.241 -12.209)" fill="#f9ca06"/>
      </g>
    </g>
    <g id="Group_4093" data-name="Group 4093">
      <g id="Group_3886" data-name="Group 3886" transform="translate(-5416.868 -7649.906)">
        <g id="Group_3864" data-name="Group 3864" transform="translate(0.634 0.563)">
          <path id="Path_2775" data-name="Path 2775" d="M765.24,405.184c3.944,2.254,3.944,5.938.043,8.234l-40.913,23.794a15.7,15.7,0,0,1-14.172,0l-41.173-23.794c-3.944-2.254-3.944-5.938-.043-8.234L709.9,381.39a15.7,15.7,0,0,1,14.172,0Z" transform="translate(-666.062 -379.7)" fill="#1f54dd"/>
        </g>
        <g id="Group_3865" data-name="Group 3865" transform="translate(16.556 9.838)">
          <path id="Path_2776" data-name="Path 2776" d="M770.974,418.609c2.687,1.56,2.73,4.074.043,5.634l-28.128,16.339a10.743,10.743,0,0,1-9.752,0l-28.3-16.339c-2.687-1.56-2.731-4.074-.043-5.634l28.128-16.339a10.742,10.742,0,0,1,9.751,0Z" transform="translate(-702.8 -401.1)" fill="#540b87"/>
        </g>
        <g id="Group_3866" data-name="Group 3866" transform="translate(25.717 15.115)">
          <path id="Path_2777" data-name="Path 2777" d="M774.369,426.245c1.994,1.17,1.994,3.034.043,4.161l-20.8,12.092a7.9,7.9,0,0,1-7.238,0l-20.933-12.092c-1.994-1.17-1.994-3.034-.043-4.161l20.8-12.092a7.9,7.9,0,0,1,7.238,0Z" transform="translate(-723.938 -413.275)" fill="#6de0f5"/>
        </g>
        <path id="Path_2778" data-name="Path 2778" d="M765.248,452.117l-40.913,23.794a15.7,15.7,0,0,1-14.172,0l-41.173-23.794c-1.994-1.127-2.947-2.644-2.947-4.117L666,465.813c0,1.517,1,2.99,2.947,4.117l41.173,23.794a15.7,15.7,0,0,0,14.172,0L765.2,469.93c1.951-1.127,2.9-2.6,2.9-4.074l.043-17.813C768.152,449.517,767.2,450.991,765.248,452.117Z" transform="translate(-665.393 -417.836)" fill="#d5d6e0"/>
        <g id="Group_3867" data-name="Group 3867" transform="translate(0.043)">
          <path id="Path_2779" data-name="Path 2779" d="M716.491,438.686a15.183,15.183,0,0,1-7.368-1.777l-41.173-23.794c-2.08-1.214-3.25-2.817-3.25-4.594,0-1.734,1.127-3.381,3.207-4.551l40.913-23.794a16.163,16.163,0,0,1,14.736,0l41.173,23.794c2.08,1.214,3.25,2.817,3.25,4.594,0,1.734-1.127,3.38-3.207,4.551l-40.913,23.794A14.715,14.715,0,0,1,716.491,438.686Zm-.347-59.159a13.294,13.294,0,0,0-6.8,1.647l-40.913,23.793c-1.69,1-2.644,2.3-2.644,3.641s.953,2.644,2.687,3.641l41.173,23.794a14.034,14.034,0,0,0,6.848,1.647,13.293,13.293,0,0,0,6.8-1.647l40.913-23.794c1.69-1,2.644-2.3,2.644-3.641s-.953-2.644-2.687-3.641l-41.173-23.793A13.573,13.573,0,0,0,716.144,379.527Z" transform="translate(-664.7 -378.4)" fill="#d5d5d5"/>
        </g>
        <path id="Path_2780" data-name="Path 2780" d="M716.391,495.877a15.184,15.184,0,0,1-7.368-1.777l-41.173-23.794c-2.08-1.214-3.25-2.86-3.25-4.594l.043-17.813h1.083c0,1.344.954,2.644,2.687,3.641l41.173,23.794a14.034,14.034,0,0,0,6.848,1.647,13.294,13.294,0,0,0,6.8-1.647l40.913-23.794c1.69-1,2.644-2.254,2.644-3.6h1.083l-.043,17.813c0,1.734-1.127,3.337-3.207,4.551L723.716,494.1A14.323,14.323,0,0,1,716.391,495.877Zm-50.664-45.117-.043,15c0,1.344.953,2.644,2.687,3.684l41.173,23.793a14.034,14.034,0,0,0,6.848,1.647,13.294,13.294,0,0,0,6.8-1.647l40.913-23.793c1.69-1,2.644-2.254,2.644-3.6l.043-15a7.637,7.637,0,0,1-2.08,1.734L723.8,476.374a16.164,16.164,0,0,1-14.736,0l-41.173-23.794A8.441,8.441,0,0,1,665.727,450.761Z" transform="translate(-664.6 -417.779)" fill="#d5d5d5"/>
        <g id="Group_3872" data-name="Group 3872" transform="translate(5.461 40.696)">
          <g id="Group_3868" data-name="Group 3868">
            <path id="Path_2781" data-name="Path 2781" d="M679.931,473.9v7.714l-2.73-1.56V472.3Z" transform="translate(-677.2 -472.3)" fill="#1f54dd"/>
          </g>
          <g id="Group_3869" data-name="Group 3869" transform="translate(5.591 3.25)">
            <path id="Path_2782" data-name="Path 2782" d="M692.831,481.36l-.043,7.714-2.687-1.56V479.8Z" transform="translate(-690.1 -479.8)" fill="#1f54dd"/>
          </g>
          <g id="Group_3870" data-name="Group 3870" transform="translate(11.182 6.458)">
            <path id="Path_2783" data-name="Path 2783" d="M705.731,488.8l-.043,7.715L703,494.958V487.2Z" transform="translate(-703 -487.2)" fill="#1f54dd"/>
          </g>
          <g id="Group_3871" data-name="Group 3871" transform="translate(16.729 9.708)">
            <path id="Path_2784" data-name="Path 2784" d="M718.574,496.26l-.043,7.714-2.73-1.56.043-7.714Z" transform="translate(-715.8 -494.7)" fill="#1f54dd"/>
          </g>
        </g>
        <g id="Group_3876" data-name="Group 3876" transform="translate(27.781 53.611)">
          <g id="Group_3873" data-name="Group 3873">
            <path id="Path_2785" data-name="Path 2785" d="M731.474,503.66l-.043,7.758-2.73-1.6.043-7.714Z" transform="translate(-728.7 -502.1)" fill="#1f54dd"/>
          </g>
          <g id="Group_3874" data-name="Group 3874" transform="translate(5.591 3.25)">
            <path id="Path_2786" data-name="Path 2786" d="M744.374,511.16l-.043,7.714-2.73-1.56.043-7.715Z" transform="translate(-741.6 -509.6)" fill="#1f54dd"/>
          </g>
          <g id="Group_3875" data-name="Group 3875" transform="translate(11.182 6.458)">
            <path id="Path_2787" data-name="Path 2787" d="M757.274,518.56l-.043,7.758-2.73-1.6.043-7.715Z" transform="translate(-754.5 -517)" fill="#1f54dd"/>
          </g>
        </g>
        <g id="Group_3881" data-name="Group 3881" transform="translate(77.535 41.476)">
          <g id="Group_3877" data-name="Group 3877" transform="translate(16.729)">
            <path id="Path_2788" data-name="Path 2788" d="M882.1,475.7l.043,7.715,2.73-1.56-.043-7.758Z" transform="translate(-882.1 -474.1)" fill="#1f54dd"/>
          </g>
          <g id="Group_3878" data-name="Group 3878" transform="translate(11.182 3.25)">
            <path id="Path_2789" data-name="Path 2789" d="M869.3,483.16v7.715l2.73-1.56-.043-7.714Z" transform="translate(-869.3 -481.6)" fill="#1f54dd"/>
          </g>
          <g id="Group_3879" data-name="Group 3879" transform="translate(5.591 6.458)">
            <path id="Path_2790" data-name="Path 2790" d="M856.4,490.56v7.758l2.73-1.6V489Z" transform="translate(-856.4 -489)" fill="#1f54dd"/>
          </g>
          <g id="Group_3880" data-name="Group 3880" transform="translate(0 9.708)">
            <path id="Path_2791" data-name="Path 2791" d="M843.5,498.06v7.715l2.73-1.56V496.5Z" transform="translate(-843.5 -496.5)" fill="#1f54dd"/>
          </g>
        </g>
        <g id="Group_3885" data-name="Group 3885" transform="translate(60.762 54.391)">
          <g id="Group_3882" data-name="Group 3882" transform="translate(11.182)">
            <path id="Path_2792" data-name="Path 2792" d="M830.6,505.46v7.758l2.73-1.6V503.9Z" transform="translate(-830.6 -503.9)" fill="#1f54dd"/>
          </g>
          <g id="Group_3883" data-name="Group 3883" transform="translate(5.591 3.207)">
            <path id="Path_2793" data-name="Path 2793" d="M817.7,512.9v7.714l2.73-1.56V511.3Z" transform="translate(-817.7 -511.3)" fill="#1f54dd"/>
          </g>
          <g id="Group_3884" data-name="Group 3884" transform="translate(0 6.458)">
            <path id="Path_2794" data-name="Path 2794" d="M804.8,520.36v7.714l2.73-1.56V518.8Z" transform="translate(-804.8 -518.8)" fill="#1f54dd"/>
          </g>
        </g>
      </g>
      <g id="Group_3898" data-name="Group 3898" transform="translate(-5416.868 -7720.68)">
        <g id="Group_3887" data-name="Group 3887" transform="translate(0.634 0.52)">
          <path id="Path_2795" data-name="Path 2795" d="M765.24,241.827c3.944,2.254,3.944,5.938.043,8.235l-40.913,23.75a15.7,15.7,0,0,1-14.172,0l-41.173-23.794c-3.944-2.254-3.944-5.938-.043-8.235L709.9,217.99a15.7,15.7,0,0,1,14.172,0Z" transform="translate(-666.062 -216.3)" fill="#fff"/>
        </g>
        <g id="Group_3888" data-name="Group 3888" transform="translate(16.556 9.795)">
          <path id="Path_2796" data-name="Path 2796" d="M770.974,255.209c2.687,1.56,2.73,4.074.043,5.634l-28.128,16.339a10.743,10.743,0,0,1-9.752,0l-28.3-16.339c-2.687-1.56-2.731-4.074-.043-5.634l28.128-16.339a10.743,10.743,0,0,1,9.751,0Z" transform="translate(-702.8 -237.7)" fill="#1f54dd"/>
        </g>
        <path id="Path_2798" data-name="Path 2798" d="M765.248,288.717l-40.913,23.794a15.7,15.7,0,0,1-14.172,0l-41.173-23.794c-1.994-1.127-2.947-2.644-2.947-4.117L666,346.229c0,1.517,1,2.99,2.947,4.117L710.12,374.14a15.7,15.7,0,0,0,14.172,0L765.2,350.347c1.951-1.127,2.9-2.6,2.9-4.074l.043-61.629C768.152,286.117,767.2,287.591,765.248,288.717Z" transform="translate(-665.393 -254.479)" fill="#d5d6e0"/>
        <g id="Group_3890" data-name="Group 3890" transform="translate(0.043)">
          <path id="Path_2799" data-name="Path 2799" d="M716.491,275.386a15.184,15.184,0,0,1-7.368-1.777l-41.173-23.794c-2.08-1.214-3.25-2.817-3.25-4.594,0-1.734,1.127-3.38,3.207-4.551l40.913-23.794a16.163,16.163,0,0,1,14.736,0l41.173,23.794c2.08,1.213,3.25,2.817,3.25,4.594,0,1.734-1.127,3.381-3.207,4.551l-40.913,23.794A15.183,15.183,0,0,1,716.491,275.386Zm-.347-59.2a13.294,13.294,0,0,0-6.8,1.647l-40.913,23.794c-1.69,1-2.644,2.3-2.644,3.641s.953,2.644,2.687,3.641L709.643,272.7a14.035,14.035,0,0,0,6.848,1.647,13.294,13.294,0,0,0,6.8-1.647l40.913-23.794c1.69-1,2.644-2.3,2.644-3.641s-.953-2.644-2.687-3.641L722.992,217.83A13.572,13.572,0,0,0,716.144,216.184Z" transform="translate(-664.7 -215.1)" fill="#d5d5d5"/>
        </g>
        <path id="Path_2800" data-name="Path 2800" d="M716.391,376.394a15.183,15.183,0,0,1-7.368-1.777l-41.173-23.794c-2.08-1.214-3.25-2.86-3.25-4.594l.043-61.629h1.083c0,1.344.954,2.644,2.687,3.641l41.173,23.794a14.034,14.034,0,0,0,6.848,1.647,13.294,13.294,0,0,0,6.8-1.647l40.913-23.794c1.69-1,2.644-2.254,2.644-3.6h1.083l-.043,61.629c0,1.734-1.127,3.38-3.207,4.551l-40.913,23.794A14.323,14.323,0,0,1,716.391,376.394Zm-50.664-88.977-.043,58.812c0,1.344.953,2.644,2.687,3.684l41.173,23.794a14.034,14.034,0,0,0,6.848,1.647,13.294,13.294,0,0,0,6.8-1.647l40.913-23.794c1.69-1,2.644-2.254,2.644-3.6L766.8,287.5a7.638,7.638,0,0,1-2.08,1.734L723.8,313.031a16.163,16.163,0,0,1-14.736,0l-41.173-23.793A8.44,8.44,0,0,1,665.727,287.417Z" transform="translate(-664.6 -254.479)" fill="#d5d5d5"/>
        <g id="Group_3894" data-name="Group 3894" transform="translate(8.278 47.934)">
          <g id="Group_3891" data-name="Group 3891">
            <path id="Path_2801" data-name="Path 2801" d="M686.474,327.26l-.043,40.956-2.73-1.6.043-40.913Z" transform="translate(-683.7 -325.7)" fill="#1f54dd"/>
          </g>
          <g id="Group_3892" data-name="Group 3892" transform="translate(5.591 3.207)">
            <path id="Path_2802" data-name="Path 2802" d="M699.374,334.66l-.043,40.956-2.73-1.56.043-40.956Z" transform="translate(-696.6 -333.1)" fill="#1f54dd"/>
          </g>
          <g id="Group_3893" data-name="Group 3893" transform="translate(11.182 6.458)">
            <path id="Path_2803" data-name="Path 2803" d="M712.23,342.16v40.956l-2.73-1.6.043-40.913Z" transform="translate(-709.5 -340.6)" fill="#1f54dd"/>
          </g>
        </g>
        <g id="Group_3897" data-name="Group 3897" transform="translate(88.717 41.476)">
          <g id="Group_3895" data-name="Group 3895" transform="translate(5.547)">
            <path id="Path_2804" data-name="Path 2804" d="M882.1,312.36l.043,7.714,2.73-1.56-.043-7.714Z" transform="translate(-882.1 -310.8)" fill="#272727"/>
          </g>
          <g id="Group_3896" data-name="Group 3896" transform="translate(0 3.207)">
            <path id="Path_2805" data-name="Path 2805" d="M869.3,319.76v7.758l2.73-1.6-.043-7.714Z" transform="translate(-869.3 -318.2)" fill="#272727"/>
          </g>
        </g>
      </g>
    </g>
    <path id="Path_2806" data-name="Path 2806" d="M688.043,639.251l-78.488-45.29c-9.621-5.547-25.137-5.547-34.715,0L382.193,705.908c-9.535,5.547-9.491,14.562.13,20.11l78.488,45.334c9.621,5.547,25.137,5.547,34.715,0L688.173,659.4C697.708,653.813,697.664,644.8,688.043,639.251Z" transform="translate(-5925.72 -8129.276)" fill="#fff"/>
    <path id="Path_2807" data-name="Path 2807" d="M1027.114,683.333a3.038,3.038,0,0,1,2.86,0c.78.477.78,1.214,0,1.647a3.039,3.039,0,0,1-2.86,0C1026.334,684.546,1026.29,683.809,1027.114,683.333Z" transform="translate(-6294.825 -8182.069)" fill="#d5d6e0"/>
    <path id="Path_2808" data-name="Path 2808" d="M958.89,644a2.2,2.2,0,0,1,1.95,0l24.054,13.869c.563.3.563.823,0,1.127a2.2,2.2,0,0,1-1.95,0L958.89,645.13A.6.6,0,0,1,958.89,644Z" transform="translate(-6256.29 -8159.858)" fill="#c2c2c2" stroke="#d5d6e0" stroke-width="1"/>
    <path id="Path_2810" data-name="Path 2810" d="M688.087,737.325,495.441,849.272c-9.535,5.548-25.094,5.548-34.715,0l-78.445-45.29c-4.854-2.774-7.238-6.458-7.238-10.1L375,803.635c0,3.641,2.427,7.324,7.238,10.1l78.489,45.333c9.621,5.548,25.137,5.548,34.715,0L688.087,747.12c4.724-2.774,7.108-6.371,7.108-9.968l.043-9.751C695.238,730.954,692.854,734.551,688.087,737.325Z" transform="translate(-5925.677 -8207.24)" fill="#d5d6e0"/>
    <path id="Path_2811" data-name="Path 2811" d="M477.426,863.647a35.879,35.879,0,0,1-17.639-4.247L381.3,814.11c-4.854-2.817-7.5-6.544-7.5-10.575l.043-9.751h1.04c0,3.641,2.47,7.064,6.978,9.665l78.488,45.333a37.914,37.914,0,0,0,34.2,0L687.191,736.835c4.421-2.557,6.848-5.938,6.891-9.535h1.04l-.043,9.751c0,3.944-2.644,7.671-7.368,10.4L495.065,859.4C490.3,862.174,484.057,863.647,477.426,863.647ZM374.84,797.987v5.548c0,3.64,2.47,7.064,6.978,9.665l78.488,45.334a37.916,37.916,0,0,0,34.2,0L687.147,746.586c4.421-2.557,6.848-5.937,6.891-9.534V731.5a15.763,15.763,0,0,1-6.371,6.241L495.022,849.692c-4.681,2.73-10.922,4.247-17.6,4.247a35.879,35.879,0,0,1-17.639-4.247l-78.445-45.333A15.6,15.6,0,0,1,374.84,797.987Z" transform="translate(-5924.998 -8207.184)" fill="#d5d6e0"/>
    <path id="Path_2813" data-name="Path 2813" d="M477.526,775.308h0a35.88,35.88,0,0,1-17.639-4.247L381.4,725.771c-4.811-2.774-7.5-6.544-7.5-10.532s2.6-7.671,7.368-10.445L573.914,592.847c4.681-2.73,10.922-4.247,17.6-4.247a35.881,35.881,0,0,1,17.639,4.247l78.489,45.333c4.811,2.774,7.5,6.544,7.5,10.532s-2.6,7.671-7.368,10.445L495.122,771.1A36.173,36.173,0,0,1,477.526,775.308ZM591.509,589.6a35.028,35.028,0,0,0-17.076,4.074L381.788,705.661c-4.421,2.6-6.891,5.981-6.891,9.578,0,3.64,2.47,7.064,6.978,9.665l78.488,45.333a37.914,37.914,0,0,0,34.2,0L687.2,658.29c4.421-2.6,6.891-5.981,6.891-9.578,0-3.641-2.47-7.064-6.978-9.621l-78.489-45.377A34.856,34.856,0,0,0,591.509,589.6Z" transform="translate(-5925.054 -8128.596)" fill="#d5d6e0"/>
    <g id="Group_4096" data-name="Group 4096" transform="translate(-5233.586 -7389.192)">
      <path id="Path_2734" data-name="Path 2734" d="M1012.867,979.49c.91.52.954,1.387,0,1.95a3.857,3.857,0,0,1-3.38,0c-.91-.52-.954-1.387,0-1.95A3.857,3.857,0,0,1,1012.867,979.49Z" transform="translate(-1008.787 -979.1)" fill="#c2c2c2"/>
      <path id="Path_3251" data-name="Path 3251" d="M880.54,1003.71l73.331-42.776-.78-.434-73.461,42.82c-.043.044-.087.044-.13.087Z" transform="translate(-935.533 -968.562)" fill="#c2c2c2"/>
      <path id="Path_2850" data-name="Path 2850" d="M1047.661,917.722a14.379,14.379,0,0,1-7.021-1.69l-38.919-22.45c-1.994-1.17-3.121-2.73-3.121-4.421s1.084-3.25,3.077-4.42l38.659-22.45a15.427,15.427,0,0,1,14.042,0l38.919,22.45c1.994,1.17,3.121,2.73,3.121,4.42s-1.083,3.251-3.077,4.421l-38.659,22.45A14.26,14.26,0,0,1,1047.661,917.722Zm-.3-55.908a12.715,12.715,0,0,0-6.371,1.517l-38.659,22.45c-1.56.91-2.427,2.08-2.427,3.337s.867,2.427,2.47,3.337l38.919,22.45a12.882,12.882,0,0,0,6.414,1.517,12.715,12.715,0,0,0,6.371-1.517l38.659-22.45c1.56-.91,2.427-2.08,2.427-3.337s-.867-2.427-2.47-3.337l-38.919-22.45A13,13,0,0,0,1047.358,861.814Z" transform="translate(-1003.015 -911.958)" fill="#c2c2c2"/>
    </g>
    <g id="Group_3915" data-name="Group 3915" transform="translate(-5627.258 -7381.124)">
      <path id="Path_2841" data-name="Path 2841" d="M282.855,921.345c1.994,1.17,1.994,3.034,0,4.2L262.009,937.64a7.9,7.9,0,0,1-7.238,0l-20.933-12.092c-1.994-1.17-1.994-3.034-.043-4.2l20.846-12.092a7.9,7.9,0,0,1,7.238,0Z" transform="translate(-232.337 -908.375)" fill="#1f54dd"/>
      <path id="Path_2842" data-name="Path 2842" d="M282.778,945.224l-20.846,12.092a7.9,7.9,0,0,1-7.238,0L233.76,945.224a2.57,2.57,0,0,1-1.517-2.124l-.043,7.888a2.626,2.626,0,0,0,1.517,2.124L254.693,965.2a7.9,7.9,0,0,0,7.238,0l20.846-12.092a2.508,2.508,0,0,0,1.474-2.08l.043-7.888A2.569,2.569,0,0,1,282.778,945.224Z" transform="translate(-232.259 -928.05)" fill="#d5d6e0"/>
    </g>
    <g id="Group_4092" data-name="Group 4092" transform="translate(-5494.08 -7543.185)">
      <path id="Path_2841-2" data-name="Path 2841" d="M288.33,922.75c2.21,1.3,2.21,3.363,0,4.66l-23.105,13.4a8.754,8.754,0,0,1-8.022,0L234,927.41c-2.21-1.3-2.21-3.363-.048-4.66l23.105-13.4a8.756,8.756,0,0,1,8.022,0Z" transform="translate(-232.331 -908.375)" fill="#1f54dd"/>
      <path id="Path_2842-2" data-name="Path 2842" d="M288.258,945.454l-23.105,13.4a8.756,8.756,0,0,1-8.022,0l-23.2-13.4a2.849,2.849,0,0,1-1.681-2.354l-.048,8.743a2.911,2.911,0,0,0,1.681,2.354l23.249,13.4a8.757,8.757,0,0,0,8.022,0l23.105-13.4a2.78,2.78,0,0,0,1.633-2.306l.048-8.742A2.847,2.847,0,0,1,288.258,945.454Z" transform="translate(-232.259 -926.419)" fill="#d5d6e0"/>
    </g>
    <g id="Group_3917" data-name="Group 3917" transform="translate(-5627.621 -7381.417)">
      <g id="Group_3916" data-name="Group 3916">
        <path id="Path_2843" data-name="Path 2843" d="M257.937,938.471a7.363,7.363,0,0,1-3.771-.91L233.19,925.469a2.863,2.863,0,0,1-1.69-2.383,2.9,2.9,0,0,1,1.647-2.384l20.846-12.092a8.266,8.266,0,0,1,7.541,0L282.511,920.7a2.864,2.864,0,0,1,1.69,2.384,2.9,2.9,0,0,1-1.647,2.383l-20.847,12.092A7.823,7.823,0,0,1,257.937,938.471Zm-.13-30.121a7.018,7.018,0,0,0-3.424.823l-20.846,12.092a2.137,2.137,0,0,0-1.3,1.777,2.312,2.312,0,0,0,1.344,1.82l20.976,12.092a7.621,7.621,0,0,0,6.891,0l20.847-12.092a2.138,2.138,0,0,0,1.3-1.777,2.312,2.312,0,0,0-1.344-1.82l-20.977-12.092A6.844,6.844,0,0,0,257.807,908.35Z" transform="translate(-231.5 -907.7)" fill="#d5d6e0"/>
      </g>
    </g>
    <g id="Group_3918" data-name="Group 3918" transform="translate(-5627.621 -7366.031)">
      <path id="Path_2844" data-name="Path 2844" d="M257.937,966.474a7.36,7.36,0,0,1-3.771-.91L233.19,953.472a2.864,2.864,0,0,1-1.69-2.384l.043-7.888h.693a2.312,2.312,0,0,0,1.344,1.82l20.976,12.092a7.618,7.618,0,0,0,6.891,0l20.847-12.092a2.138,2.138,0,0,0,1.3-1.777h.693l-.043,7.888a2.953,2.953,0,0,1-1.647,2.384l-20.846,12.092A8.119,8.119,0,0,1,257.937,966.474ZM232.193,944.76v6.284a2.312,2.312,0,0,0,1.344,1.82l20.977,12.092a7.619,7.619,0,0,0,6.891,0l20.846-12.092a2.137,2.137,0,0,0,1.3-1.777V944.8a6.146,6.146,0,0,1-.953.78l-20.846,12.092a8.266,8.266,0,0,1-7.541,0l-20.976-12.092A4.15,4.15,0,0,1,232.193,944.76Z" transform="translate(-231.5 -943.2)" fill="#d5d6e0"/>
    </g>
    <g id="Group_3919" data-name="Group 3919" transform="translate(-5657.547 -7385.566)">
      <path id="Path_2845" data-name="Path 2845" d="M166.546,898.548c.91.52.953,1.387,0,1.95a3.857,3.857,0,0,1-3.381,0c-.953-.52-.953-1.387,0-1.95A3.592,3.592,0,0,1,166.546,898.548Z" transform="translate(-162.45 -898.125)" fill="#d5d6e0"/>
    </g>
    <g id="Group_3962" data-name="Group 3962" transform="translate(-5279.388 -7380.675)">
      <g id="Group_3961" data-name="Group 3961" transform="translate(0 112.038)">
        <g id="Group_3926" data-name="Group 3926">
          <path id="Path_2850-2" data-name="Path 2850" d="M1059.583,931.6a17.874,17.874,0,0,1-8.727-2.1L1002.479,901.6c-2.478-1.455-3.879-3.394-3.879-5.5s1.347-4.04,3.825-5.495l48.053-27.906a19.176,19.176,0,0,1,17.454,0l48.377,27.906c2.478,1.455,3.878,3.394,3.878,5.495s-1.346,4.041-3.824,5.5L1068.31,929.5A17.725,17.725,0,0,1,1059.583,931.6Zm-.377-69.495a15.805,15.805,0,0,0-7.919,1.885L1003.233,891.9c-1.939,1.131-3.017,2.586-3.017,4.148s1.078,3.017,3.071,4.148l48.377,27.905a16.013,16.013,0,0,0,7.973,1.885,15.805,15.805,0,0,0,7.919-1.885l48.053-27.905c1.939-1.131,3.017-2.586,3.017-4.148s-1.078-3.017-3.071-4.148l-48.377-27.906A16.16,16.16,0,0,0,1059.206,862.109Z" transform="translate(-998.6 -860.6)" fill="#c2c2c2"/>
        </g>
      </g>
      <g id="Group_3960" data-name="Group 3960" transform="translate(9.106 46.281)">
        <g id="Group_3887-2" data-name="Group 3887" transform="translate(0.634 0.52)">
          <path id="Path_2795-2" data-name="Path 2795" d="M765.24,241.827c3.944,2.254,3.944,5.938.043,8.235l-40.913,23.75a15.7,15.7,0,0,1-14.172,0l-41.173-23.794c-3.944-2.254-3.944-5.938-.043-8.235L709.9,217.99a15.7,15.7,0,0,1,14.172,0Z" transform="translate(-666.062 -216.3)" fill="#fff"/>
        </g>
        <g id="Group_3888-2" data-name="Group 3888" transform="translate(16.556 9.795)">
          <path id="Path_2796-2" data-name="Path 2796" d="M770.974,255.209c2.687,1.56,2.73,4.074.043,5.634l-28.128,16.339a10.743,10.743,0,0,1-9.752,0l-28.3-16.339c-2.687-1.56-2.731-4.074-.043-5.634l28.128-16.339a10.743,10.743,0,0,1,9.751,0Z" transform="translate(-702.8 -237.7)" fill="#1f54dd"/>
        </g>
        <path id="Path_2798-2" data-name="Path 2798" d="M765.248,288.717l-40.913,23.794a15.7,15.7,0,0,1-14.172,0l-41.173-23.794c-1.994-1.127-2.947-2.644-2.947-4.117L666,346.229c0,1.517,1,2.99,2.947,4.117L710.12,374.14a15.7,15.7,0,0,0,14.172,0L765.2,350.347c1.951-1.127,2.9-2.6,2.9-4.074l.043-61.629C768.152,286.117,767.2,287.591,765.248,288.717Z" transform="translate(-665.393 -254.479)" fill="#d5d6e0"/>
        <g id="Group_3890-2" data-name="Group 3890" transform="translate(0.043)">
          <path id="Path_2799-2" data-name="Path 2799" d="M716.491,275.386a15.184,15.184,0,0,1-7.368-1.777l-41.173-23.794c-2.08-1.214-3.25-2.817-3.25-4.594,0-1.734,1.127-3.38,3.207-4.551l40.913-23.794a16.163,16.163,0,0,1,14.736,0l41.173,23.794c2.08,1.213,3.25,2.817,3.25,4.594,0,1.734-1.127,3.381-3.207,4.551l-40.913,23.794A15.183,15.183,0,0,1,716.491,275.386Zm-.347-59.2a13.294,13.294,0,0,0-6.8,1.647l-40.913,23.794c-1.69,1-2.644,2.3-2.644,3.641s.953,2.644,2.687,3.641L709.643,272.7a14.035,14.035,0,0,0,6.848,1.647,13.294,13.294,0,0,0,6.8-1.647l40.913-23.794c1.69-1,2.644-2.3,2.644-3.641s-.953-2.644-2.687-3.641L722.992,217.83A13.572,13.572,0,0,0,716.144,216.184Z" transform="translate(-664.7 -215.1)" fill="#d5d5d5"/>
        </g>
        <path id="Path_2800-2" data-name="Path 2800" d="M716.391,376.394a15.183,15.183,0,0,1-7.368-1.777l-41.173-23.794c-2.08-1.214-3.25-2.86-3.25-4.594l.043-61.629h1.083c0,1.344.954,2.644,2.687,3.641l41.173,23.794a14.034,14.034,0,0,0,6.848,1.647,13.294,13.294,0,0,0,6.8-1.647l40.913-23.794c1.69-1,2.644-2.254,2.644-3.6h1.083l-.043,61.629c0,1.734-1.127,3.38-3.207,4.551l-40.913,23.794A14.323,14.323,0,0,1,716.391,376.394Zm-50.664-88.977-.043,58.812c0,1.344.953,2.644,2.687,3.684l41.173,23.794a14.034,14.034,0,0,0,6.848,1.647,13.294,13.294,0,0,0,6.8-1.647l40.913-23.794c1.69-1,2.644-2.254,2.644-3.6L766.8,287.5a7.638,7.638,0,0,1-2.08,1.734L723.8,313.031a16.163,16.163,0,0,1-14.736,0l-41.173-23.793A8.44,8.44,0,0,1,665.727,287.417Z" transform="translate(-664.6 -254.479)" fill="#d5d5d5"/>
        <g id="Group_3894-2" data-name="Group 3894" transform="translate(8.278 47.934)">
          <g id="Group_3891-2" data-name="Group 3891">
            <path id="Path_2801-2" data-name="Path 2801" d="M686.474,327.26l-.043,40.956-2.73-1.6.043-40.913Z" transform="translate(-683.7 -325.7)" fill="#1f54dd"/>
          </g>
          <g id="Group_3892-2" data-name="Group 3892" transform="translate(5.591 3.207)">
            <path id="Path_2802-2" data-name="Path 2802" d="M699.374,334.66l-.043,40.956-2.73-1.56.043-40.956Z" transform="translate(-696.6 -333.1)" fill="#1f54dd"/>
          </g>
          <g id="Group_3893-2" data-name="Group 3893" transform="translate(11.182 6.458)">
            <path id="Path_2803-2" data-name="Path 2803" d="M712.23,342.16v40.956l-2.73-1.6.043-40.913Z" transform="translate(-709.5 -340.6)" fill="#1f54dd"/>
          </g>
        </g>
        <g id="Group_3897-2" data-name="Group 3897" transform="translate(88.717 41.476)">
          <g id="Group_3895-2" data-name="Group 3895" transform="translate(5.547)">
            <path id="Path_2804-2" data-name="Path 2804" d="M882.1,312.36l.043,7.714,2.73-1.56-.043-7.714Z" transform="translate(-882.1 -310.8)" fill="#272727"/>
          </g>
          <g id="Group_3896-2" data-name="Group 3896" transform="translate(0 3.207)">
            <path id="Path_2805-2" data-name="Path 2805" d="M869.3,319.76v7.758l2.73-1.6-.043-7.714Z" transform="translate(-869.3 -318.2)" fill="#272727"/>
          </g>
        </g>
      </g>
      <g id="Group_3986" data-name="Group 3986" transform="translate(42.584 0)">
        <path id="Path_2286-2" data-name="Path 2286" d="M262.893,27.356c0-9.333-6.555-20.69-14.643-25.359-4.013-2.319-7.656-2.551-10.3-1.052h-.031l-.053.031c-.419.245-3.621,2.127-3.674,2.154l1.2.25c-1.449,1.784-1.784,3.71-1.784,7.054,0,9.337,6.555,20.69,14.639,25.359a12.834,12.834,0,0,0,7.036,1.984l-.856,1.471,4.058-2.368.214-.12.107-.062h0C261.332,35.132,262.893,31.908,262.893,27.356Z" transform="translate(-223.993 2.691)" fill="#dd990e"/>
        <ellipse id="Ellipse_2991-2" data-name="Ellipse 2991" cx="11.996" cy="20.779" rx="11.996" ry="20.779" transform="translate(0 11.955) rotate(-29.887)" fill="#f9cb07"/>
        <path id="Path_2288-2" data-name="Path 2288" d="M255.831,37.432c0,6.689-4.691,9.391-10.483,6.051-.357-.21-.718-.446-1.07-.682a.071.071,0,0,1-.036-.027c-4.954-3.821-8.722-10.969-8.722-16.944,0-6.689,4.691-9.4,10.479-6.051.388.223.771.468,1.146.736C252.081,24.323,255.831,31.457,255.831,37.432Z" transform="translate(-225.051 -7.475)" fill="#e8a30a"/>
        <path id="Path_2290-2" data-name="Path 2290" d="M256.014,38.978a5.468,5.468,0,0,0-1.414-1.784q1.2,0,1.061-1.784a4.1,4.1,0,0,0-.3-1.24,4.393,4.393,0,0,0-.664-1.115,7.639,7.639,0,0,0-.892-.945,11.905,11.905,0,0,0-1.133-.865V28.9l-1.244-.718v2.287l-.99-.553V27.608L249.2,26.89v2.354c-.178-.1-.446-.245-.785-.446l-1.717-1v1.529l.892.522A1.4,1.4,0,0,1,248.3,30.9v2.675l.129.085-.129-.071v3.75c-.04.294-.2.361-.468.21l-.892-.522-.254,1.565,1.619.936.446.259.446.259v2.381l1.244.718v-2.35c.227.138.557.33.99.58v2.345l1.244.718V42.055a10.62,10.62,0,0,0,1.177.54,4.1,4.1,0,0,0,.981.245,1.454,1.454,0,0,0,.785-.094,1.154,1.154,0,0,0,.522-.531,2.594,2.594,0,0,0,.263-1.017A4.125,4.125,0,0,0,256.014,38.978Zm-5.569-7.371.317.183.446.241c.116.067.272.165.473.294a5.8,5.8,0,0,1,.495.361,5.878,5.878,0,0,1,.446.415,2.96,2.96,0,0,1,.388.482,2.677,2.677,0,0,1,.245.535,1.9,1.9,0,0,1,.1.606,1.182,1.182,0,0,1-.071.446.446.446,0,0,1-.214.241,1.218,1.218,0,0,1-.3.08,1.043,1.043,0,0,1-.388-.058c-.161-.045-.3-.094-.419-.134a3.9,3.9,0,0,1-.446-.205c-.178-.089-.312-.165-.4-.218l-.379-.214-.276-.169V31.608Zm3.4,8.325a.6.6,0,0,1-.2.259.54.54,0,0,1-.321.1,1.828,1.828,0,0,1-.383-.027,2.867,2.867,0,0,1-.446-.129q-.227-.083-.446-.187c-.129-.058-.29-.138-.473-.236s-.326-.174-.446-.232l-.388-.227-.3-.178V35.915l.383.214.522.29c.134.08.321.2.557.352a4.244,4.244,0,0,1,.6.446,6.688,6.688,0,0,1,.531.477,3.507,3.507,0,0,1,.446.553,2.917,2.917,0,0,1,.3.6,1.869,1.869,0,0,1,.125.669A1.012,1.012,0,0,1,253.842,39.933Z" transform="translate(-231.241 -12.209)" fill="#f9ca06"/>
      </g>
    </g>
    <g id="Group_3920" data-name="Group 3920" transform="translate(-5582.07 -7340.547)">
      <path id="Path_2846" data-name="Path 2846" d="M337.38,1002l-.78.433,43.9,25.354.78-.433Z" transform="translate(-336.6 -1002)" fill="#d5d6e0"/>
    </g>
    <g id="Group_3921" data-name="Group 3921" transform="translate(-5571.024 -7334.382)">
      <path id="Path_2847" data-name="Path 2847" d="M366.167,1016.648c.91.52.953,1.387,0,1.951a3.857,3.857,0,0,1-3.38,0c-.91-.52-.953-1.387,0-1.951A3.592,3.592,0,0,1,366.167,1016.648Z" transform="translate(-362.087 -1016.225)" fill="#d5d6e0"/>
    </g>
    <g id="Group_3923" data-name="Group 3923" transform="translate(-5565.428 -7330.882)">
      <g id="Group_3922" data-name="Group 3922">
        <path id="Path_2848" data-name="Path 2848" d="M407.722,1062.439a9.351,9.351,0,0,1-4.681-1.127l-25.961-15a3.139,3.139,0,0,1-.043-5.894l25.787-15a10.284,10.284,0,0,1,9.361,0l25.961,15a3.139,3.139,0,0,1,.043,5.894l-25.787,15A9.35,9.35,0,0,1,407.722,1062.439Zm-.217-37.315a8.665,8.665,0,0,0-4.247,1l-25.787,15a2.776,2.776,0,0,0-1.647,2.21,2.894,2.894,0,0,0,1.647,2.254l25.961,15a9.546,9.546,0,0,0,8.495,0l25.787-15a2.775,2.775,0,0,0,1.647-2.21,2.894,2.894,0,0,0-1.647-2.254l-25.961-15A8.666,8.666,0,0,0,407.5,1025.124Z" transform="translate(-375 -1024.3)" fill="#c2c2c2"/>
      </g>
    </g>
    <path id="Path_2812" data-name="Path 2812" d="M692.612,648.194c6.631,3.814,6.631,10.011.087,13.826L500.053,773.966c-6.588,3.814-17.249,3.814-23.88,0l-78.488-45.334c-6.631-3.814-6.631-10.011-.087-13.825L590.243,602.86c6.588-3.814,17.249-3.814,23.88,0l8.451,4.854c1.56.91,1.56,2.384,0,3.25-3.034,1.734-2.99,4.594.043,6.371L667.6,643.3a12.209,12.209,0,0,0,10.965,0,6.154,6.154,0,0,1,5.634,0Z" transform="translate(-5935.706 -8135.055)" fill="url(#linear-gradient)"/>
    <g id="Group_3928" data-name="Group 3928" transform="translate(-5558.868 -7343.245)">
      <path id="Path_2851" data-name="Path 2851" d="M440.7,1008.745c1.994,1.17,1.994,3.034,0,4.2l-20.846,12.092a7.9,7.9,0,0,1-7.238,0l-20.976-12.092c-1.994-1.17-1.994-3.034-.043-4.2l20.846-12.092a7.9,7.9,0,0,1,7.238,0Z" transform="translate(-390.137 -995.775)" fill="#fff"/>
      <path id="Path_3249" data-name="Path 3249" d="M440.621,1032.624l-20.846,12.092a7.9,7.9,0,0,1-7.238,0l-20.977-12.092a2.57,2.57,0,0,1-1.517-2.124l-.043,7.888a2.626,2.626,0,0,0,1.517,2.123l20.977,12.092a7.9,7.9,0,0,0,7.238,0l20.846-12.092a2.508,2.508,0,0,0,1.474-2.08l.043-7.888C442.138,1031.28,441.618,1032.017,440.621,1032.624Z" transform="translate(-390.06 -1015.45)" fill="#d5d6e0"/>
      <path id="Path_3250" data-name="Path 3250" d="M444.738,1018.061a14.143,14.143,0,0,0-12.915,0c-3.554,2.08-3.554,5.417.043,7.5a14.144,14.144,0,0,0,12.915,0C448.335,1023.478,448.292,1020.141,444.738,1018.061Zm-.737,7.021a12.489,12.489,0,0,1-11.355,0c-3.121-1.82-3.164-4.767-.043-6.588a12.4,12.4,0,0,1,11.312,0C447.078,1020.357,447.122,1023.261,444,1025.082Z" transform="translate(-412.249 -1007.518)" fill="#1f54dd"/>
      <path id="Path_2853" data-name="Path 2853" d="M415.937,1025.871a7.363,7.363,0,0,1-3.771-.91L391.19,1012.87a2.864,2.864,0,0,1-1.69-2.384,2.9,2.9,0,0,1,1.647-2.384l20.847-12.092a8.263,8.263,0,0,1,7.541,0l20.976,12.092a2.864,2.864,0,0,1,1.69,2.384,2.9,2.9,0,0,1-1.647,2.384l-20.846,12.092A8.081,8.081,0,0,1,415.937,1025.871Zm-.173-30.121a7.016,7.016,0,0,0-3.424.824l-20.846,12.092a2.138,2.138,0,0,0-1.3,1.777,2.312,2.312,0,0,0,1.344,1.82l20.976,12.092a7.62,7.62,0,0,0,6.891,0l20.846-12.092a2.137,2.137,0,0,0,1.3-1.777,2.312,2.312,0,0,0-1.344-1.82l-21.02-12.135A7.014,7.014,0,0,0,415.764,995.75Z" transform="translate(-389.776 -995.393)" fill="#d5d6e0"/>
    </g>
    <path id="Path_2849" data-name="Path 2849" d="M795.722,1080.139a9.352,9.352,0,0,1-4.681-1.127l-25.961-15a3.139,3.139,0,0,1-.043-5.894l25.787-15a10.284,10.284,0,0,1,9.361,0l25.961,15a3.139,3.139,0,0,1,.043,5.894l-25.787,15A9.351,9.351,0,0,1,795.722,1080.139Zm-.217-37.272a8.669,8.669,0,0,0-4.247,1l-25.787,15a2.776,2.776,0,0,0-1.647,2.21,2.9,2.9,0,0,0,1.647,2.254l25.961,15a9.547,9.547,0,0,0,8.495,0l25.787-15a2.776,2.776,0,0,0,1.647-2.211,2.9,2.9,0,0,0-1.647-2.254l-25.961-15A8.437,8.437,0,0,0,795.505,1042.867Z" transform="translate(-6103.11 -8403.932)" fill="#d5d6e0"/>
    <g id="Group_3969" data-name="Group 3969" transform="translate(-5340.11 -7455.633)">
      <g id="Group_3817" data-name="Group 3817" transform="translate(90.315 75.715)">
        <path id="Path_2732" data-name="Path 2732" d="M975.467,1000.89c.91.52.953,1.387,0,1.95a3.857,3.857,0,0,1-3.38,0c-.91-.52-.954-1.387,0-1.95A3.856,3.856,0,0,1,975.467,1000.89Z" transform="translate(-971.388 -1000.5)" fill="#c2c2c2"/>
      </g>
      <g id="Group_3818" data-name="Group 3818" transform="translate(74.09 84.947)">
        <path id="Path_2733" data-name="Path 2733" d="M938.046,1022.19c.91.52.953,1.387,0,1.95a3.856,3.856,0,0,1-3.38,0c-.953-.52-.953-1.387,0-1.95A3.858,3.858,0,0,1,938.046,1022.19Z" transform="translate(-933.95 -1021.8)" fill="#c2c2c2"/>
      </g>
      <g id="Group_3957" data-name="Group 3957" transform="translate(110.825 6)">
        <g id="Group_3945" data-name="Group 3945" transform="translate(0.37 0.282)">
          <path id="Path_2938" data-name="Path 2938" d="M1094.2,846.8c3.12,1.82,3.164,4.767.043,6.544l-32.678,18.983a12.489,12.489,0,0,1-11.355,0l-32.895-18.983c-3.12-1.82-3.164-4.767-.043-6.544l32.678-18.983a12.4,12.4,0,0,1,11.311,0Z" transform="translate(-1014.95 -826.45)" fill="#fff"/>
        </g>
        <g id="Group_3946" data-name="Group 3946" transform="translate(13.15 7.682)">
          <path id="Path_2939" data-name="Path 2939" d="M1098.856,857.513c2.167,1.257,2.167,3.251.043,4.507l-22.45,13.045a8.54,8.54,0,0,1-7.8,0l-22.58-13.045c-2.167-1.257-2.167-3.251-.043-4.507l22.45-13.045a8.542,8.542,0,0,1,7.8,0Z" transform="translate(-1044.438 -843.525)" fill="#1f54dd"/>
        </g>
        <path id="Path_2941" data-name="Path 2941" d="M1094.056,884.194l-32.678,18.983a12.488,12.488,0,0,1-11.355,0l-32.9-18.983c-1.56-.91-2.384-2.123-2.384-3.294l-.043,9.145c0,1.214.78,2.384,2.384,3.294l32.9,18.983a12.487,12.487,0,0,0,11.355,0l32.678-18.983c1.56-.91,2.34-2.08,2.34-3.251l.043-9.145A3.926,3.926,0,0,1,1094.056,884.194Z" transform="translate(-1014.439 -857.02)" fill="#d5d6e0"/>
        <g id="Group_3948" data-name="Group 3948" transform="translate(0.045)">
          <path id="Path_2942" data-name="Path 2942" d="M1055.46,873.691a12.281,12.281,0,0,1-5.851-1.387l-32.9-18.983c-1.647-.954-2.514-2.21-2.514-3.6a4.224,4.224,0,0,1,2.514-3.554l32.679-18.983a11.747,11.747,0,0,1,5.807-1.387,12.285,12.285,0,0,1,5.851,1.387l32.9,18.983c1.647.953,2.514,2.21,2.514,3.6a4.224,4.224,0,0,1-2.514,3.554L1061.267,872.3A12.106,12.106,0,0,1,1055.46,873.691Zm-.26-47.284a11.475,11.475,0,0,0-5.5,1.3l-32.678,18.983c-1.387.823-2.167,1.864-2.167,2.99s.78,2.167,2.21,2.991l32.9,18.983a11,11,0,0,0,5.5,1.3,11.477,11.477,0,0,0,5.5-1.3l32.678-18.983c1.387-.823,2.167-1.864,2.167-2.991s-.78-2.167-2.21-2.99L1060.7,827.707A11.478,11.478,0,0,0,1055.2,826.407Z" transform="translate(-1014.2 -825.8)" fill="#c2c2c2"/>
        </g>
        <path id="Path_2943" data-name="Path 2943" d="M1055.358,914.012a12.285,12.285,0,0,1-5.851-1.387l-32.895-18.983c-1.647-.953-2.557-2.21-2.514-3.6l.043-9.145h.65a3.726,3.726,0,0,0,2.211,3.034l32.895,18.983a11,11,0,0,0,5.5,1.3,11.474,11.474,0,0,0,5.5-1.3l32.678-18.983c1.387-.823,2.167-1.863,2.167-2.99h.65l-.043,9.145c0,1.344-.91,2.6-2.513,3.554l-32.678,18.983A11.517,11.517,0,0,1,1055.358,914.012Zm-40.566-31.118v7.151a3.726,3.726,0,0,0,2.211,3.034l32.895,18.983a11,11,0,0,0,5.5,1.3,11.474,11.474,0,0,0,5.5-1.3l32.678-18.983c1.387-.823,2.167-1.863,2.167-2.99v-7.151a5.952,5.952,0,0,1-1.82,1.56l-32.678,18.983a11.747,11.747,0,0,1-5.808,1.387,12.284,12.284,0,0,1-5.851-1.387L1016.7,884.5A5.511,5.511,0,0,1,1014.792,882.894Z" transform="translate(-1014.097 -857.02)" fill="#c2c2c2"/>
        <g id="Group_3951" data-name="Group 3951" transform="translate(3.382 31.302)">
          <g id="Group_3950" data-name="Group 3950">
            <path id="Path_2944" data-name="Path 2944" d="M1024.607,898.188a.828.828,0,0,0-.823-.087l-1.083.65a.827.827,0,0,1,.823.086,2.558,2.558,0,0,1,1.17,1.994.815.815,0,0,1-.347.737l1.084-.65a.815.815,0,0,0,.347-.737A2.626,2.626,0,0,0,1024.607,898.188Z" transform="translate(-1022.353 -898.026)" fill="#6e6e6e"/>
            <g id="Group_3949" data-name="Group 3949" transform="translate(0 0.64)">
              <path id="Path_2945" data-name="Path 2945" d="M1023.07,899.675a2.558,2.558,0,0,1,1.17,1.994c0,.737-.52,1.04-1.17.65a2.569,2.569,0,0,1-1.17-2.037C1021.9,899.589,1022.42,899.285,1023.07,899.675Z" transform="translate(-1021.9 -899.503)" fill="#141414"/>
            </g>
          </g>
        </g>
        <g id="Group_3956" data-name="Group 3956" transform="translate(25.702 43.903)">
          <g id="Group_3952" data-name="Group 3952">
            <path id="Path_2946" data-name="Path 2946" d="M1074.44,927.707v2.947l-1.04-.607V927.1Z" transform="translate(-1073.4 -927.1)" fill="#141414"/>
          </g>
          <g id="Group_3953" data-name="Group 3953" transform="translate(2.124 1.257)">
            <path id="Path_2947" data-name="Path 2947" d="M1079.34,930.607v2.947l-1.04-.607V930Z" transform="translate(-1078.3 -930)" fill="#141414"/>
          </g>
          <g id="Group_3954" data-name="Group 3954" transform="translate(4.247 2.47)">
            <path id="Path_2948" data-name="Path 2948" d="M1084.284,933.407l-.044,2.947-1.04-.607.043-2.947Z" transform="translate(-1083.2 -932.8)" fill="#141414"/>
          </g>
          <g id="Group_3955" data-name="Group 3955" transform="translate(6.414 3.727)">
            <path id="Path_2949" data-name="Path 2949" d="M1089.24,936.307v2.947l-1.04-.607V935.7Z" transform="translate(-1088.2 -935.7)" fill="#141414"/>
          </g>
        </g>
      </g>
    </g>
    <g id="Group_3967" data-name="Group 3967" transform="translate(-5266.076 -7595.991)">
      <path id="Path_2305" data-name="Path 2305" d="M506.883,114.788V100.849l-2.242,5c-2.479-4.81-7.007-9.352-13.583-13.152-21.094-12.173-55.311-12.173-76.4,0a34.305,34.305,0,0,0-13.167,12.41l-2.657-3.5v13.241h0c0,7.957,5.314,15.913,15.824,21.985,21.094,12.172,55.3,12.172,76.4,0,10.51-6.071,15.78-14.028,15.824-21.985h0Z" transform="translate(-398.83 -70.225)" fill="#dd990e"/>
      <ellipse id="Ellipse_2995" data-name="Ellipse 2995" cx="54.019" cy="31.188" rx="54.019" ry="31.188" transform="translate(0 0)" fill="#f9cb07"/>
      <path id="Path_2307" data-name="Path 2307" d="M486.4,103.341c-.52,5.255-4.275,10.391-11.237,14.444-15.112,8.729-39.59,8.729-54.7,0-6.962-4.008-10.718-9.189-11.252-14.444.534-5.27,4.29-10.391,11.252-14.459,15.112-8.714,39.59-8.714,54.7,0C482.126,92.891,485.882,98.072,486.4,103.341Z" transform="translate(-393.801 -70.817)" fill="#e8a30a"/>
      <path id="Path_2309" data-name="Path 2309" d="M455.894,92.467a14.4,14.4,0,0,0-5.938.876c1.039-1.826.134-3.4-2.672-4.735a10.391,10.391,0,0,0-3.192-.95,11.268,11.268,0,0,0-3.385,0,21.1,21.1,0,0,0-3.34.816,31.167,31.167,0,0,0-3.3,1.529l-5.314-3.073-3.251,1.87,5.181,2.969c-.564.312-1.41.816-2.538,1.484l-5.21-2.969-3.251,1.87L425,95.228l-2.019,1.188-4.453,2.568,3.459,2,2.345-1.351a3.637,3.637,0,0,1,3.31-.252l6.056,3.488.356-.178-.341.193,8.491,4.9c.609.475.549.92-.148,1.321l-2.345,1.366,3.206,2.6,4.231-2.434,1.158-.668,1.158-.653,5.374,3.117,3.251-1.885-5.314-3.073c.609-.327,1.484-.816,2.6-1.484l5.3,3.058,3.251-1.87-5.389-3.117a31.472,31.472,0,0,0,2.761-1.945,10.389,10.389,0,0,0,1.826-1.9,3.874,3.874,0,0,0,.638-1.9,2.969,2.969,0,0,0-.52-1.87A7.021,7.021,0,0,0,461.3,94.53a10.911,10.911,0,0,0-5.4-2.063Zm-23.959,2.969.831-.49,1.113-.668a14.4,14.4,0,0,1,1.277-.683c.549-.267,1.039-.49,1.484-.653s.92-.312,1.484-.475a7.618,7.618,0,0,1,1.6-.238,6.132,6.132,0,0,1,1.484.148,4.779,4.779,0,0,1,1.484.549,2.88,2.88,0,0,1,.891.742,1.009,1.009,0,0,1,.237.787,2.788,2.788,0,0,1-.208.787,2.7,2.7,0,0,1-.623.816l-.861.757a10.376,10.376,0,0,1-1.039.742l-1.024.623q-.327.223-.98.579l-.727.4-6.487-3.726ZM455.181,98.6a1.692,1.692,0,0,1,.327.787,1.484,1.484,0,0,1-.193.846,4.945,4.945,0,0,1-.564.846,6.93,6.93,0,0,1-.876.846,11.985,11.985,0,0,1-1.024.787c-.312.223-.7.475-1.158.772l-1.084.653-1.024.579-.787.445-7.14-4.112.995-.594,1.336-.8,1.484-.8c.668-.327,1.247-.594,1.752-.787s1.1-.386,1.781-.579a9.233,9.233,0,0,1,1.856-.327,7.867,7.867,0,0,1,1.752.1,5.314,5.314,0,0,1,1.663.609A2.778,2.778,0,0,1,455.181,98.6Z" transform="translate(-389.286 -68.597)" fill="#f9ca06"/>
    </g>
    <g id="Group_3965" data-name="Group 3965" transform="translate(-5416.35 -7332.321)">
      <path id="Path_2305-2" data-name="Path 2305" d="M506.883,114.788V100.849l-2.242,5c-2.479-4.81-7.007-9.352-13.583-13.152-21.094-12.173-55.311-12.173-76.4,0a34.305,34.305,0,0,0-13.167,12.41l-2.657-3.5v13.241h0c0,7.957,5.314,15.913,15.824,21.985,21.094,12.172,55.3,12.172,76.4,0,10.51-6.071,15.78-14.028,15.824-21.985h0Z" transform="translate(-398.83 -70.225)" fill="#dd990e"/>
      <ellipse id="Ellipse_2995-2" data-name="Ellipse 2995" cx="54.019" cy="31.188" rx="54.019" ry="31.188" transform="translate(0 0)" fill="#f9cb07"/>
      <path id="Path_2307-2" data-name="Path 2307" d="M486.4,103.341c-.52,5.255-4.275,10.391-11.237,14.444-15.112,8.729-39.59,8.729-54.7,0-6.962-4.008-10.718-9.189-11.252-14.444.534-5.27,4.29-10.391,11.252-14.459,15.112-8.714,39.59-8.714,54.7,0C482.126,92.891,485.882,98.072,486.4,103.341Z" transform="translate(-393.801 -70.817)" fill="#e8a30a"/>
      <path id="Path_2309-2" data-name="Path 2309" d="M455.894,92.467a14.4,14.4,0,0,0-5.938.876c1.039-1.826.134-3.4-2.672-4.735a10.391,10.391,0,0,0-3.192-.95,11.268,11.268,0,0,0-3.385,0,21.1,21.1,0,0,0-3.34.816,31.167,31.167,0,0,0-3.3,1.529l-5.314-3.073-3.251,1.87,5.181,2.969c-.564.312-1.41.816-2.538,1.484l-5.21-2.969-3.251,1.87L425,95.228l-2.019,1.188-4.453,2.568,3.459,2,2.345-1.351a3.637,3.637,0,0,1,3.31-.252l6.056,3.488.356-.178-.341.193,8.491,4.9c.609.475.549.92-.148,1.321l-2.345,1.366,3.206,2.6,4.231-2.434,1.158-.668,1.158-.653,5.374,3.117,3.251-1.885-5.314-3.073c.609-.327,1.484-.816,2.6-1.484l5.3,3.058,3.251-1.87-5.389-3.117a31.472,31.472,0,0,0,2.761-1.945,10.389,10.389,0,0,0,1.826-1.9,3.874,3.874,0,0,0,.638-1.9,2.969,2.969,0,0,0-.52-1.87A7.021,7.021,0,0,0,461.3,94.53a10.911,10.911,0,0,0-5.4-2.063Zm-23.959,2.969.831-.49,1.113-.668a14.4,14.4,0,0,1,1.277-.683c.549-.267,1.039-.49,1.484-.653s.92-.312,1.484-.475a7.618,7.618,0,0,1,1.6-.238,6.132,6.132,0,0,1,1.484.148,4.779,4.779,0,0,1,1.484.549,2.88,2.88,0,0,1,.891.742,1.009,1.009,0,0,1,.237.787,2.788,2.788,0,0,1-.208.787,2.7,2.7,0,0,1-.623.816l-.861.757a10.376,10.376,0,0,1-1.039.742l-1.024.623q-.327.223-.98.579l-.727.4-6.487-3.726ZM455.181,98.6a1.692,1.692,0,0,1,.327.787,1.484,1.484,0,0,1-.193.846,4.945,4.945,0,0,1-.564.846,6.93,6.93,0,0,1-.876.846,11.985,11.985,0,0,1-1.024.787c-.312.223-.7.475-1.158.772l-1.084.653-1.024.579-.787.445-7.14-4.112.995-.594,1.336-.8,1.484-.8c.668-.327,1.247-.594,1.752-.787s1.1-.386,1.781-.579a9.233,9.233,0,0,1,1.856-.327,7.867,7.867,0,0,1,1.752.1,5.314,5.314,0,0,1,1.663.609A2.778,2.778,0,0,1,455.181,98.6Z" transform="translate(-389.286 -68.597)" fill="#f9ca06"/>
    </g>
    <g id="Group_3964" data-name="Group 3964" transform="translate(-5525.919 -7599.533)">
      <path id="Path_3191" data-name="Path 3191" d="M275.606,311.564l-49.986,28.86L202.13,326.86,252.113,298Z" transform="translate(-202.13 -287.682)" fill="#d6d8e5" opacity="0.3"/>
      <path id="Path_3192" data-name="Path 3192" d="M285.986,271.191,236,300.051l-23.49-13.564,49.983-28.857Z" transform="translate(-209.857 -257.63)" fill="#b9cc00"/>
      <ellipse id="Ellipse_3066" data-name="Ellipse 3066" cx="5.497" cy="9.569" rx="5.497" ry="9.569" transform="matrix(0.06, -0.998, 0.998, 0.06, 29.509, 26.121)" opacity="0.35"/>
      <path id="Path_3193" data-name="Path 3193" d="M225.46,291.926l20.38,11.757,46.477-26.836-20.38-11.757Zm60.523-13.418L248.95,299.889a9.167,9.167,0,0,0-6.014.118l-10.921-6.3a2.159,2.159,0,0,0-.164-3.461l36.918-21.313a9.136,9.136,0,0,0,6.3-.018l10.921,6.305A2.125,2.125,0,0,0,285.983,278.508Z" transform="translate(-219.497 -263.183)" opacity="0.35"/>
      <ellipse id="Ellipse_3067" data-name="Ellipse 3067" cx="2.167" cy="1.25" rx="2.167" ry="1.25" transform="translate(23.935 27.766)" opacity="0.35"/>
      <ellipse id="Ellipse_3068" data-name="Ellipse 3068" cx="2.167" cy="1.25" rx="2.167" ry="1.25" transform="translate(50.492 12.434)" opacity="0.35"/>
      <path id="Path_3194" data-name="Path 3194" d="M343.292,332.037a1.792,1.792,0,0,0-.882-.255,4.675,4.675,0,0,0-1.222.189q-.751.2-1.349.307a7.1,7.1,0,0,1-1.145.123,4.42,4.42,0,0,1-1.061-.1,3.58,3.58,0,0,1-1-.4q-.846-.486-.848-1.112a1.539,1.539,0,0,1,.808-1.2l-1.071-.619.8-.463,1.086.637a4.585,4.585,0,0,1,2.127-.376,4.665,4.665,0,0,1,2.091.631l-1.447.836a2.609,2.609,0,0,0-1.148-.376,1.7,1.7,0,0,0-.961.212c-.273.158-.409.325-.4.511s.146.345.419.511a1.7,1.7,0,0,0,.831.225,5.624,5.624,0,0,0,1.291-.2q.838-.207,1.436-.307a6.616,6.616,0,0,1,1.132-.1,4.381,4.381,0,0,1,1.022.118,3.513,3.513,0,0,1,.938.381q.854.491.854,1.1a1.6,1.6,0,0,1-.838,1.206l1,.575-.795.46-.992-.573a5.128,5.128,0,0,1-2.321.5,4.6,4.6,0,0,1-2.208-.626l1.447-.836a2.577,2.577,0,0,0,1.2.366,2.091,2.091,0,0,0,1.132-.286c.294-.171.447-.35.463-.537S343.566,332.19,343.292,332.037Z" transform="translate(-301.429 -310.395)" fill="#b9cc00"/>
      <path id="Path_3195" data-name="Path 3195" d="M236,392.756,212.51,379.18v-8.7L236,384.059Z" transform="translate(-209.857 -341.638)" fill="#b9cc00"/>
      <path id="Path_3196" data-name="Path 3196" d="M236,392.756,212.51,379.18v-8.7L236,384.059Z" transform="translate(-209.857 -341.638)" opacity="0.3"/>
      <path id="Path_3197" data-name="Path 3197" d="M354.406,319.337,304.42,348.21v-8.7l49.986-28.872Z" transform="translate(-278.277 -297.092)" fill="#b9cc00"/>
      <path id="Path_3198" data-name="Path 3198" d="M354.406,319.337,304.42,348.21v-8.7l49.986-28.872Z" transform="translate(-278.277 -297.092)" opacity="0.15"/>
    </g>
    <g id="Group_3968" data-name="Group 3968" transform="translate(-5400.538 -7237.217)">
      <path id="Path_3191-2" data-name="Path 3191" d="M275.606,311.564l-49.986,28.86L202.13,326.86,252.113,298Z" transform="translate(-202.13 -287.682)" fill="#d6d8e5" opacity="0.3"/>
      <path id="Path_3192-2" data-name="Path 3192" d="M285.986,271.191,236,300.051l-23.49-13.564,49.983-28.857Z" transform="translate(-209.857 -257.63)" fill="#b9cc00"/>
      <ellipse id="Ellipse_3066-2" data-name="Ellipse 3066" cx="5.497" cy="9.569" rx="5.497" ry="9.569" transform="matrix(0.06, -0.998, 0.998, 0.06, 29.509, 26.121)" opacity="0.35"/>
      <path id="Path_3193-2" data-name="Path 3193" d="M225.46,291.926l20.38,11.757,46.477-26.836-20.38-11.757Zm60.523-13.418L248.95,299.889a9.167,9.167,0,0,0-6.014.118l-10.921-6.3a2.159,2.159,0,0,0-.164-3.461l36.918-21.313a9.136,9.136,0,0,0,6.3-.018l10.921,6.305A2.125,2.125,0,0,0,285.983,278.508Z" transform="translate(-219.497 -263.183)" opacity="0.35"/>
      <ellipse id="Ellipse_3067-2" data-name="Ellipse 3067" cx="2.167" cy="1.25" rx="2.167" ry="1.25" transform="translate(23.935 27.766)" opacity="0.35"/>
      <ellipse id="Ellipse_3068-2" data-name="Ellipse 3068" cx="2.167" cy="1.25" rx="2.167" ry="1.25" transform="translate(50.492 12.434)" opacity="0.35"/>
      <path id="Path_3194-2" data-name="Path 3194" d="M343.292,332.037a1.792,1.792,0,0,0-.882-.255,4.675,4.675,0,0,0-1.222.189q-.751.2-1.349.307a7.1,7.1,0,0,1-1.145.123,4.42,4.42,0,0,1-1.061-.1,3.58,3.58,0,0,1-1-.4q-.846-.486-.848-1.112a1.539,1.539,0,0,1,.808-1.2l-1.071-.619.8-.463,1.086.637a4.585,4.585,0,0,1,2.127-.376,4.665,4.665,0,0,1,2.091.631l-1.447.836a2.609,2.609,0,0,0-1.148-.376,1.7,1.7,0,0,0-.961.212c-.273.158-.409.325-.4.511s.146.345.419.511a1.7,1.7,0,0,0,.831.225,5.624,5.624,0,0,0,1.291-.2q.838-.207,1.436-.307a6.616,6.616,0,0,1,1.132-.1,4.381,4.381,0,0,1,1.022.118,3.513,3.513,0,0,1,.938.381q.854.491.854,1.1a1.6,1.6,0,0,1-.838,1.206l1,.575-.795.46-.992-.573a5.128,5.128,0,0,1-2.321.5,4.6,4.6,0,0,1-2.208-.626l1.447-.836a2.577,2.577,0,0,0,1.2.366,2.091,2.091,0,0,0,1.132-.286c.294-.171.447-.35.463-.537S343.566,332.19,343.292,332.037Z" transform="translate(-301.429 -310.395)" fill="#b9cc00"/>
      <path id="Path_3195-2" data-name="Path 3195" d="M236,392.756,212.51,379.18v-8.7L236,384.059Z" transform="translate(-209.857 -341.638)" fill="#b9cc00"/>
      <path id="Path_3196-2" data-name="Path 3196" d="M236,392.756,212.51,379.18v-8.7L236,384.059Z" transform="translate(-209.857 -341.638)" opacity="0.3"/>
      <path id="Path_3197-2" data-name="Path 3197" d="M354.406,319.337,304.42,348.21v-8.7l49.986-28.872Z" transform="translate(-278.277 -297.092)" fill="#b9cc00"/>
      <path id="Path_3198-2" data-name="Path 3198" d="M354.406,319.337,304.42,348.21v-8.7l49.986-28.872Z" transform="translate(-278.277 -297.092)" opacity="0.15"/>
    </g>
    <g id="Group_3970" data-name="Group 3970" transform="translate(-5543.058 -7289.841)">
      <g id="Group_3926-2" data-name="Group 3926">
        <path id="Path_2850-3" data-name="Path 2850" d="M1059.583,931.6a17.874,17.874,0,0,1-8.727-2.1L1002.479,901.6c-2.478-1.455-3.879-3.394-3.879-5.5s1.347-4.04,3.825-5.495l48.053-27.906a19.176,19.176,0,0,1,17.454,0l48.377,27.906c2.478,1.455,3.878,3.394,3.878,5.495s-1.346,4.041-3.824,5.5L1068.31,929.5A17.725,17.725,0,0,1,1059.583,931.6Zm-.377-69.495a15.805,15.805,0,0,0-7.919,1.885L1003.233,891.9c-1.939,1.131-3.017,2.586-3.017,4.148s1.078,3.017,3.071,4.148l48.377,27.905a16.013,16.013,0,0,0,7.973,1.885,15.805,15.805,0,0,0,7.919-1.885l48.053-27.905c1.939-1.131,3.017-2.586,3.017-4.148s-1.078-3.017-3.071-4.148l-48.377-27.906A16.16,16.16,0,0,0,1059.206,862.109Z" transform="translate(-998.6 -860.6)" fill="#c2c2c2"/>
      </g>
    </g>
    <g id="Group_3971" data-name="Group 3971" transform="translate(-5300.114 -7653.317)">
      <g id="Group_3926-3" data-name="Group 3926">
        <path id="Path_2850-4" data-name="Path 2850" d="M1026.736,893.359a8.249,8.249,0,0,1-4.026-.969l-22.32-12.875a3.084,3.084,0,0,1-1.789-2.535,3.052,3.052,0,0,1,1.765-2.535l22.171-12.875a8.848,8.848,0,0,1,8.053,0l22.32,12.875a3.084,3.084,0,0,1,1.79,2.535,3.051,3.051,0,0,1-1.765,2.535l-22.171,12.875A8.178,8.178,0,0,1,1026.736,893.359Zm-.174-32.063a7.292,7.292,0,0,0-3.654.87l-22.171,12.875a2.006,2.006,0,0,0,.025,3.828l22.32,12.875a7.389,7.389,0,0,0,3.678.87,7.292,7.292,0,0,0,3.654-.87l22.171-12.875a2.006,2.006,0,0,0-.025-3.828l-22.32-12.875A7.455,7.455,0,0,0,1026.562,861.3Z" transform="translate(-998.6 -860.6)" fill="#c2c2c2"/>
      </g>
    </g>
    <g id="Group_3973" data-name="Group 3973" transform="translate(-5484.499 -7645.02)">
      <g id="Group_3926-4" data-name="Group 3926">
        <path id="Path_2850-5" data-name="Path 2850" d="M1026.736,893.359a8.249,8.249,0,0,1-4.026-.969l-22.32-12.875a3.084,3.084,0,0,1-1.789-2.535,3.052,3.052,0,0,1,1.765-2.535l22.171-12.875a8.848,8.848,0,0,1,8.053,0l22.32,12.875a3.084,3.084,0,0,1,1.79,2.535,3.051,3.051,0,0,1-1.765,2.535l-22.171,12.875A8.178,8.178,0,0,1,1026.736,893.359Zm-.174-32.063a7.292,7.292,0,0,0-3.654.87l-22.171,12.875a2.006,2.006,0,0,0,.025,3.828l22.32,12.875a7.389,7.389,0,0,0,3.678.87,7.292,7.292,0,0,0,3.654-.87l22.171-12.875a2.006,2.006,0,0,0-.025-3.828l-22.32-12.875A7.455,7.455,0,0,0,1026.562,861.3Z" transform="translate(-998.6 -860.6)" fill="#c2c2c2"/>
      </g>
    </g>
    <g id="Group_3975" data-name="Group 3975" transform="translate(-5565.272 -7633.006)">
      <g id="Group_3926-5" data-name="Group 3926">
        <path id="Path_2850-6" data-name="Path 2850" d="M1026.736,893.359a8.249,8.249,0,0,1-4.026-.969l-22.32-12.875a3.084,3.084,0,0,1-1.789-2.535,3.052,3.052,0,0,1,1.765-2.535l22.171-12.875a8.848,8.848,0,0,1,8.053,0l22.32,12.875a3.084,3.084,0,0,1,1.79,2.535,3.051,3.051,0,0,1-1.765,2.535l-22.171,12.875A8.178,8.178,0,0,1,1026.736,893.359Zm-.174-32.063a7.292,7.292,0,0,0-3.654.87l-22.171,12.875a2.006,2.006,0,0,0,.025,3.828l22.32,12.875a7.389,7.389,0,0,0,3.678.87,7.292,7.292,0,0,0,3.654-.87l22.171-12.875a2.006,2.006,0,0,0-.025-3.828l-22.32-12.875A7.455,7.455,0,0,0,1026.562,861.3Z" transform="translate(-998.6 -860.6)" fill="#c2c2c2"/>
      </g>
    </g>
    <g id="Group_3972" data-name="Group 3972" transform="translate(-5300.114 -7653.317)">
      <g id="Group_3926-6" data-name="Group 3926">
        <path id="Path_2850-7" data-name="Path 2850" d="M1026.736,893.359a8.249,8.249,0,0,1-4.026-.969l-22.32-12.875a3.084,3.084,0,0,1-1.789-2.535,3.052,3.052,0,0,1,1.765-2.535l22.171-12.875a8.848,8.848,0,0,1,8.053,0l22.32,12.875a3.084,3.084,0,0,1,1.79,2.535,3.051,3.051,0,0,1-1.765,2.535l-22.171,12.875A8.178,8.178,0,0,1,1026.736,893.359Zm-.174-32.063a7.292,7.292,0,0,0-3.654.87l-22.171,12.875a2.006,2.006,0,0,0,.025,3.828l22.32,12.875a7.389,7.389,0,0,0,3.678.87,7.292,7.292,0,0,0,3.654-.87l22.171-12.875a2.006,2.006,0,0,0-.025-3.828l-22.32-12.875A7.455,7.455,0,0,0,1026.562,861.3Z" transform="translate(-998.6 -860.6)" fill="#c2c2c2"/>
      </g>
    </g>
    <g id="Group_3974" data-name="Group 3974" transform="translate(-5540.494 -7679.992)">
      <g id="Group_3926-7" data-name="Group 3926">
        <path id="Path_2850-8" data-name="Path 2850" d="M1026.736,893.359a8.249,8.249,0,0,1-4.026-.969l-22.32-12.875a3.084,3.084,0,0,1-1.789-2.535,3.052,3.052,0,0,1,1.765-2.535l22.171-12.875a8.848,8.848,0,0,1,8.053,0l22.32,12.875a3.084,3.084,0,0,1,1.79,2.535,3.051,3.051,0,0,1-1.765,2.535l-22.171,12.875A8.178,8.178,0,0,1,1026.736,893.359Zm-.174-32.063a7.292,7.292,0,0,0-3.654.87l-22.171,12.875a2.006,2.006,0,0,0,.025,3.828l22.32,12.875a7.389,7.389,0,0,0,3.678.87,7.292,7.292,0,0,0,3.654-.87l22.171-12.875a2.006,2.006,0,0,0-.025-3.828l-22.32-12.875A7.455,7.455,0,0,0,1026.562,861.3Z" transform="translate(-998.6 -860.6)" fill="#c2c2c2"/>
      </g>
    </g>
    <g id="Group_3976" data-name="Group 3976" transform="translate(-5695.577 -7614.375)">
      <g id="Group_3734" data-name="Group 3734" transform="translate(0 6.717)">
        <path id="Path_2700" data-name="Path 2700" d="M56.153,380.9.521,348.788c-.773-.445-.675-1.227.215-1.732l31.088-17.949a3.335,3.335,0,0,1,3-.126L90.451,361.1c.77.445.675,1.226-.215,1.735L59.158,380.784A3.316,3.316,0,0,1,56.153,380.9Z" transform="translate(0 -326.749)" fill="#d6d8e5" opacity="0.3"/>
        <path id="Path_2701" data-name="Path 2701" d="M95.189,357.753l-.583.212L39.035,325.88a3.344,3.344,0,0,0-3,.123L4.943,343.952a2.038,2.038,0,0,0-.356.258L4.21,343.9v1.018h0a.886.886,0,0,0,.518.757l55.632,32.13a3.345,3.345,0,0,0,3-.126l31.088-17.94c.5-.307.751-.665.736-1.015h0Z" transform="translate(-2.919 -324.599)" fill="#dadce5"/>
        <path id="Path_2699" data-name="Path 2699" d="M60.353,374.609,4.721,342.5c-.773-.445-.675-1.227.215-1.732l31.091-17.961a3.335,3.335,0,0,1,3-.126L94.66,354.8c.773.445.675,1.227-.215,1.735L63.358,374.484A3.326,3.326,0,0,1,60.353,374.609Z" transform="translate(-2.912 -322.381)" fill="#1f54dd"/>
        <path id="Path_2702" data-name="Path 2702" d="M42.156,387.916l-10.676-6.16,2.471-1.426,10.673,6.16Z" transform="translate(-21.828 -362.562)" fill="#dadce5"/>
        <path id="Path_2704" data-name="Path 2704" d="M111.563,347.019l-10.673-6.163,2.468-1.426,10.673,6.163Z" transform="translate(-69.956 -334.203)" fill="#dadce5"/>
        <path id="Path_2703" data-name="Path 2703" d="M84.34,412.269l-10.67-6.163,2.468-1.426,10.673,6.163Z" transform="translate(-51.082 -379.446)" fill="#dadce5"/>
        <path id="Path_2705" data-name="Path 2705" d="M126.516,436.619l-10.676-6.163,2.471-1.426,10.673,6.163Z" transform="translate(-80.322 -396.33)" fill="#dadce5"/>
        <path id="Path_2706" data-name="Path 2706" d="M168.7,460.969l-10.673-6.163,2.468-1.426,10.673,6.163Z" transform="translate(-109.576 -413.214)" fill="#dadce5"/>
      </g>
      <rect id="itunes" width="49.978" height="28.515" rx="6" transform="translate(31.633 0) rotate(30)" fill="#e9e9e9"/>
    </g>
    <g id="Group_4095" data-name="Group 4095" transform="translate(-5336.748 -7372.909)">
      <g id="Group_3945-2" data-name="Group 3945" transform="translate(0.265 0.202)">
        <path id="Path_2938-2" data-name="Path 2938" d="M1071.816,841.051c2.239,1.306,2.27,3.421.031,4.7L1048.4,859.369a8.96,8.96,0,0,1-8.148,0l-23.6-13.622c-2.239-1.306-2.27-3.421-.031-4.7l23.449-13.622a8.9,8.9,0,0,1,8.117,0Z" transform="translate(-1014.95 -826.45)" fill="#fff"/>
      </g>
      <g id="Group_3946-2" data-name="Group 3946" transform="translate(9.436 5.512)">
        <path id="Path_2939-2" data-name="Path 2939" d="M1083.487,853.563c1.555.9,1.555,2.332.031,3.234l-16.109,9.361a6.129,6.129,0,0,1-5.6,0l-16.2-9.361c-1.555-.9-1.555-2.333-.031-3.234l16.11-9.361a6.129,6.129,0,0,1,5.6,0Z" transform="translate(-1044.437 -843.525)" fill="#1f54dd"/>
      </g>
      <path id="Path_2941-2" data-name="Path 2941" d="M1071.644,883.264l-23.449,13.622a8.961,8.961,0,0,1-8.148,0l-23.6-13.622a2.941,2.941,0,0,1-1.711-2.363l-.031,6.562a2.838,2.838,0,0,0,1.711,2.364l23.6,13.622a8.961,8.961,0,0,0,8.148,0l23.449-13.622a2.856,2.856,0,0,0,1.679-2.332l.031-6.562A2.817,2.817,0,0,1,1071.644,883.264Z" transform="translate(-1014.512 -863.764)" fill="#d5d6e0"/>
      <g id="Group_3948-2" data-name="Group 3948" transform="translate(0.032)">
        <path id="Path_2942-2" data-name="Path 2942" d="M1043.807,860.165a8.814,8.814,0,0,1-4.2-1L1016,845.549a3.073,3.073,0,0,1-1.8-2.581,3.031,3.031,0,0,1,1.8-2.55l23.449-13.622a8.428,8.428,0,0,1,4.167-1,8.817,8.817,0,0,1,4.2,1l23.6,13.622a3.073,3.073,0,0,1,1.8,2.581,3.031,3.031,0,0,1-1.8,2.55l-23.449,13.622A8.689,8.689,0,0,1,1043.807,860.165Zm-.187-33.93a8.234,8.234,0,0,0-3.95.933l-23.449,13.622a2.251,2.251,0,0,0,.031,4.292l23.6,13.622a7.9,7.9,0,0,0,3.95.933,8.234,8.234,0,0,0,3.949-.933l23.449-13.622a2.251,2.251,0,0,0-.031-4.292l-23.6-13.622A8.237,8.237,0,0,0,1043.62,826.236Z" transform="translate(-1014.2 -825.8)" fill="#c2c2c2"/>
      </g>
      <path id="Path_2943-2" data-name="Path 2943" d="M1043.7,904.66a8.815,8.815,0,0,1-4.2-1l-23.6-13.622a3.013,3.013,0,0,1-1.8-2.581l.031-6.562h.466a2.674,2.674,0,0,0,1.586,2.177l23.6,13.622a7.9,7.9,0,0,0,3.95.933,8.234,8.234,0,0,0,3.949-.933l23.449-13.622a2.653,2.653,0,0,0,1.555-2.146h.466l-.031,6.562a3.132,3.132,0,0,1-1.8,2.55l-23.449,13.622A8.263,8.263,0,0,1,1043.7,904.66Zm-29.109-22.33v5.131a2.674,2.674,0,0,0,1.586,2.177l23.6,13.622a7.9,7.9,0,0,0,3.95.933,8.234,8.234,0,0,0,3.949-.933l23.449-13.622a2.653,2.653,0,0,0,1.555-2.146v-5.131a4.272,4.272,0,0,1-1.306,1.12L1047.934,897.1a8.432,8.432,0,0,1-4.168,1,8.814,8.814,0,0,1-4.2-1l-23.6-13.622A3.953,3.953,0,0,1,1014.6,882.331Z" transform="translate(-1014.097 -863.764)" fill="#c2c2c2"/>
      <g id="Group_3951-2" data-name="Group 3951" transform="translate(2.427 22.462)">
        <g id="Group_3950-2" data-name="Group 3950">
          <path id="Path_2944-2" data-name="Path 2944" d="M1024.069,898.142a.6.6,0,0,0-.591-.062l-.777.467a.594.594,0,0,1,.591.062,1.836,1.836,0,0,1,.839,1.431.584.584,0,0,1-.249.529l.778-.466a.585.585,0,0,0,.249-.529A1.885,1.885,0,0,0,1024.069,898.142Z" transform="translate(-1022.451 -898.026)" fill="#6e6e6e"/>
          <g id="Group_3949-2" data-name="Group 3949" transform="translate(0 0.46)">
            <path id="Path_2945-2" data-name="Path 2945" d="M1022.74,899.627a1.835,1.835,0,0,1,.839,1.431c0,.529-.373.747-.839.467a1.843,1.843,0,0,1-.84-1.462C1021.9,899.565,1022.273,899.347,1022.74,899.627Z" transform="translate(-1021.9 -899.503)" fill="#141414"/>
          </g>
        </g>
      </g>
      <g id="Group_3956-2" data-name="Group 3956" transform="translate(18.443 31.504)">
        <g id="Group_3952-2" data-name="Group 3952">
          <path id="Path_2946-2" data-name="Path 2946" d="M1074.146,927.536v2.115l-.746-.435V927.1Z" transform="translate(-1073.4 -927.1)" fill="#141414"/>
        </g>
        <g id="Group_3953-2" data-name="Group 3953" transform="translate(1.524 0.902)">
          <path id="Path_2947-2" data-name="Path 2947" d="M1079.047,930.435v2.115l-.746-.436V930Z" transform="translate(-1078.3 -930)" fill="#141414"/>
        </g>
        <g id="Group_3954-2" data-name="Group 3954" transform="translate(3.048 1.773)">
          <path id="Path_2948-2" data-name="Path 2948" d="M1083.978,933.235l-.031,2.115-.746-.435.031-2.115Z" transform="translate(-1083.2 -932.8)" fill="#141414"/>
        </g>
        <g id="Group_3955-2" data-name="Group 3955" transform="translate(4.603 2.675)">
          <path id="Path_2949-2" data-name="Path 2949" d="M1088.946,936.135v2.115l-.746-.435V935.7Z" transform="translate(-1088.2 -935.7)" fill="#141414"/>
        </g>
      </g>
    </g>
    <g id="Group_4042" data-name="Group 4042" transform="translate(-5427.448 -7484.05)">
      <path id="Path_2412" data-name="Path 2412" d="M137.98,76.9,125.322,69.6l18.3-3.849.437-.742-19.55,4.117-.5-.288,20.329-4.306.424-.752-21.617,4.557-.515-.295,22.423-4.744.417-.756-23.508,4.981-.2.02-3.964-2.29,30.494-6.438-10.307,18.1Zm1.382.8-.566-.339L149.6,58.52l.823-.19Zm1.355.783-.5-.288,11.476-20.1.806-.18Zm1.382.8-.515-.3,12.2-21.305.786-.19L142.094,79.3Zm6.326,3.653-5.462-3.154L155.914,57.2l8.206-1.742Z" transform="translate(-103.739 -36.152)" fill="#fff"/>
    </g>
  </g>
</svg>
